<svg xmlns="http://www.w3.org/2000/svg" width="1200" height="630"><path fill="#fefbfb" d="M0 0h1200v630H0z"/><defs><clipPath id="a"><path d="M109 39h1048a4 4 0 0 1 4 4v496a4 4 0 0 1-4 4H109a4 4 0 0 1-4-4V43a4 4 0 0 1 4-4"/></clipPath></defs><g opacity=".9"><path fill="#ecebeb" d="M109 39h1048a4 4 0 0 1 4 4v496a4 4 0 0 1-4 4H109a4 4 0 0 1-4-4V43a4 4 0 0 1 4-4"/><path fill="none" stroke="#000" stroke-width="8" d="M106.172 40.172A4 4 0 0 1 109 39h1048a4 4 0 0 1 4 4v496a4 4 0 0 1-4 4H109a4 4 0 0 1-4-4V43a4 4 0 0 1 1.172-2.828" clip-path="url(#a)"/></g><defs><clipPath id="b"><path d="M76 63h1048a4 4 0 0 1 4 4v496a4 4 0 0 1-4 4H76a4 4 0 0 1-4-4V67a4 4 0 0 1 4-4"/></clipPath></defs><path fill="#fefbfb" d="M76 63h1048a4 4 0 0 1 4 4v496a4 4 0 0 1-4 4H76a4 4 0 0 1-4-4V67a4 4 0 0 1 4-4"/><path fill="none" stroke="#000" stroke-width="8" d="M73.172 64.172A4 4 0 0 1 76 63h1048a4 4 0 0 1 4 4v496a4 4 0 0 1-4 4H76a4 4 0 0 1-4-4V67a4 4 0 0 1 1.172-2.828" clip-path="url(#b)"/><clipPath id="c"><path d="M128 103h944v94H128z"/></clipPath><mask id="d"><path fill="#fff" d="M128 103h944v94H128z"/></mask><path d="M155.9 183v-21.1h-12.6V183h-10.9v-50.3h10.9v20.4h12.6v-20.4h10.9V183h-10.9Zm37.9.8q-9.4 0-14.2-5.2-4.8-5.2-4.8-14.1 0-4.5 1.3-8.2 1.2-3.6 3.6-6.1 2.3-2.6 5.6-3.9 3.4-1.4 7.6-1.4 4.1 0 7.5 1.4 3.3 1.3 5.6 3.7 2.3 2.5 3.5 6 1.3 3.5 1.3 7.8v3.2h-25.4v.6q0 3.6 2.2 5.8 2.2 2.2 6.6 2.2 3.3 0 5.7-1.3 2.3-1.2 4.1-3.3l5.7 6.3q-2.1 2.6-6 4.6-3.9 1.9-9.9 1.9Zm-.9-31.2q-3.4 0-5.5 2.1-2 2.1-2 5.7v.6h15v-.6q0-3.7-2-5.7-2-2.1-5.5-2.1Zm26.4 30.4v-8.3h11.4V138h-11.4v-8.3h22v45h11.4v8.3h-33.4Zm43.2 0v-8.3h11.4V138h-11.4v-8.3h22v45h11.4v8.3h-33.4Zm59.9.8q-4.3 0-7.8-1.3-3.4-1.3-5.8-3.9-2.5-2.5-3.8-6.1-1.2-3.6-1.2-8.1 0-4.6 1.2-8.2 1.3-3.6 3.8-6.1 2.4-2.5 5.8-3.8 3.5-1.4 7.8-1.4t7.8 1.4q3.4 1.3 5.8 3.8 2.5 2.5 3.8 6.1 1.2 3.6 1.2 8.2 0 4.5-1.2 8.1-1.3 3.6-3.8 6.1-2.4 2.6-5.8 3.9-3.5 1.3-7.8 1.3Zm0-7.9q3.6 0 5.6-2.2 2-2.3 2-6.4v-5.9q0-4.1-2-6.3t-5.6-2.2q-3.6 0-5.6 2.2-2 2.2-2 6.3v5.9q0 4.1 2 6.4 2 2.2 5.6 2.2Zm82.4 7.1h-13.7l-3.1-50.3h9.3l1.4 30.1.5 9.5h.6l4.3-28.7h9.7l4.4 28.7h.6l.4-9.2 1.5-30.4h8.9l-3.1 50.3h-13.7l-3.6-27.8h-.8l-3.6 27.8Zm47.2.8q-4.3 0-7.8-1.3-3.4-1.3-5.8-3.9-2.5-2.5-3.8-6.1-1.2-3.6-1.2-8.1 0-4.6 1.2-8.2 1.3-3.6 3.8-6.1 2.4-2.5 5.8-3.8 3.5-1.4 7.8-1.4t7.8 1.4q3.4 1.3 5.8 3.8 2.5 2.5 3.8 6.1 1.2 3.6 1.2 8.2 0 4.5-1.2 8.1-1.3 3.6-3.8 6.1-2.4 2.6-5.8 3.9-3.5 1.3-7.8 1.3Zm0-7.9q3.6 0 5.6-2.2 2-2.3 2-6.4v-5.9q0-4.1-2-6.3t-5.6-2.2q-3.6 0-5.6 2.2-2 2.2-2 6.3v5.9q0 4.1 2 6.4 2 2.2 5.6 2.2Zm26.9 7.1v-8.3h8.6v-20.6h-8.6v-8.3h19.3v10.5h.5q.5-2 1.4-3.9.9-1.9 2.3-3.4t3.4-2.3q2-.9 4.7-.9h3.6v9.8h-8q-3.9 0-5.9 2.3-2 2.4-2 5.8v11h12.2v8.3h-31.5Zm42.8 0v-8.3h11.4V138h-11.4v-8.3h22v45h11.4v8.3h-33.4Zm66.6 0v-6.8h-.5q-1.4 3.4-4 5.5t-7 2.1q-3.1 0-5.7-1.1-2.5-1.2-4.4-3.6-1.8-2.3-2.8-6-1.1-3.7-1.1-8.7 0-5.1 1.1-8.7 1-3.7 2.8-6.1 1.9-2.4 4.4-3.5 2.6-1.2 5.7-1.2 2.2 0 3.9.6 1.8.6 3.1 1.6t2.3 2.4q1 1.4 1.7 3.1h.5v-22.9H599V183h-10.7Zm-6.9-7.5q2.8 0 4.8-1.3 2.1-1.4 2.1-4.4v-10.9q0-2.9-2.1-4.3-2-1.4-4.8-1.4-3.6 0-5.6 2.2-1.9 2.2-1.9 6.1v5.8q0 3.8 1.9 6 2 2.2 5.6 2.2Z" clip-path="url(#c)" mask="url(#d)"/><path d="M130.7 520.3v-20.7h2.2v8.6h.1q1.4-2.7 4.5-2.7 2.6 0 4.1 2 1.5 2 1.5 5.5 0 3.6-1.5 5.6-1.5 2-4.1 2-3.1 0-4.5-2.7h-.1v2.4h-2.2Zm5.9-1.7q2 0 3-1.2 1.1-1.2 1.1-3.1v-2.5q0-1.9-1.1-3.1-1-1.2-3-1.2-.8 0-1.4.2-.7.2-1.2.5-.5.4-.8 1-.3.5-.3 1.2v5.3q0 .7.3 1.2.3.6.8.9.5.4 1.2.6.6.2 1.4.2Zm18.8-6.7 2.5-6.1h2.2l-7.2 17.6q-.2.7-.5 1.1-.3.5-.7.8-.5.3-1 .4-.6.2-1.4.2h-2.2V524h3.4l1.6-4-5.8-14.2h2.3l2.4 6.1 2.2 5.5h.1l2.1-5.5Z"/><clipPath id="e"><path d="M178 489h134v36H178z"/></clipPath><mask id="f"><path fill="#fff" d="M178 489h134v36H178z"/></mask><path d="M188.8 520.1v-2.6h-.1q-.5 1.2-1.5 2.1-1.1.8-2.8.8-1 0-1.9-.3-.9-.4-1.5-1.1-.6-.7-.9-1.7-.4-1-.4-2.3v-9.4h4.2v8.8q0 2.8 2.4 2.8.5 0 .9-.1.5-.1.8-.4.4-.2.6-.6.2-.4.2-1v-9.5h4.2v14.5h-4.2Zm15.3-16.3q-1.4 0-1.9-.6-.6-.6-.6-1.4v-.8q0-.8.6-1.4.5-.5 1.9-.5t1.9.5q.6.6.6 1.4v.8q0 .8-.6 1.4-.5.6-1.9.6Zm-6.7 16.3v-3.2h4.6v-8h-4.6v-3.3h8.8v11.3h4.2v3.2h-13Zm25 0v-2.6h-.1q-.5 1.2-1.5 2.1-1.1.8-2.8.8-1 0-1.9-.3-.9-.4-1.5-1.1-.6-.7-.9-1.7-.4-1-.4-2.3v-9.4h4.2v8.8q0 2.8 2.4 2.8.5 0 .9-.1.5-.1.8-.4.4-.2.6-.6.2-.4.2-1v-9.5h4.2v14.5h-4.2Zm15.3-16.3q-1.4 0-1.9-.6-.6-.6-.6-1.4v-.8q0-.8.6-1.4.5-.5 1.9-.5t1.9.5q.6.6.6 1.4v.8q0 .8-.6 1.4-.5.6-1.9.6Zm-6.7 16.3v-3.2h4.6v-8H231v-3.3h8.8v11.3h4.2v3.2h-13Zm25.2 5.6v-8.2h-.2q-.6 1.3-1.5 2.1-1 .8-2.8.8-1.2 0-2.2-.4-1-.5-1.7-1.4-.7-.9-1.1-2.3-.4-1.5-.4-3.4 0-2 .4-3.4t1.1-2.4q.7-.9 1.7-1.3 1-.5 2.2-.5.9 0 1.6.2l1.2.6q.5.4.9 1 .3.5.6 1.2h.2v-2.7h4.1v20.1h-4.1Zm-2.7-8.5q1.1 0 1.9-.5.8-.6.8-1.7v-4.3q0-1.1-.8-1.6-.8-.6-1.9-.6-1.4 0-2.1.9-.8.8-.8 2.3v2.3q0 1.5.8 2.4.7.8 2.1.8Zm10.3 2.9v-20.7h4.2v11.7h.2l1.9-2.2 3-3.3h4.8l-5.6 5.8 6.2 8.7h-5l-4.2-6.4-1.3 1.4v5h-4.2Zm17.6 5.6v-3.2h5.5v-13.6h-5.6v-3.3h9.8v15.9q0 1.8-1.1 3t-3.3 1.2h-5.3Zm7.6-21.9q-1.4 0-2-.6-.5-.6-.5-1.4v-.8q0-.8.5-1.4.6-.5 2-.5t1.9.5q.6.6.6 1.4v.8q0 .8-.6 1.4-.5.6-1.9.6Zm12.6 16.3h-4.2v-14.5h4.2v2.7h.1l.6-1.2q.4-.5.9-.9t1.2-.7q.7-.2 1.6-.2 1 0 1.9.4.9.3 1.5 1t.9 1.7q.4 1 .4 2.3v9.4h-4.2v-8.8q0-2.8-2.4-2.8-.5 0-.9.1-.5.2-.9.4-.3.3-.5.7-.2.4-.2.9v9.5Z" clip-path="url(#e)" mask="url(#f)"/><clipPath id="g"><path d="M937 489h135v36H937z"/></clipPath><mask id="h"><path fill="#fff" d="M937 489h135v36H937z"/></mask><path d="M947.8 520.1v-2.6h-.1q-.5 1.2-1.5 2.1-1.1.8-2.8.8-1 0-1.9-.3-.9-.4-1.5-1.1-.6-.7-.9-1.7-.4-1-.4-2.3v-9.4h4.2v8.8q0 2.8 2.4 2.8.5 0 .9-.1.5-.1.8-.4.4-.2.6-.6.2-.4.2-1v-9.5h4.2v14.5h-4.2Zm15.3-16.3q-1.4 0-2-.6-.5-.6-.5-1.4v-.8q0-.8.5-1.4.6-.5 2-.5t1.9.5q.6.6.6 1.4v.8q0 .8-.6 1.4-.5.6-1.9.6Zm-6.7 16.3v-3.2h4.6v-8h-4.6v-3.3h8.8v11.3h4.2v3.2h-13Zm25 0v-2.6h-.1q-.5 1.2-1.5 2.1-1.1.8-2.8.8-1 0-1.9-.3-.9-.4-1.5-1.1-.6-.7-.9-1.7-.4-1-.4-2.3v-9.4h4.2v8.8q0 2.8 2.4 2.8.5 0 .9-.1.5-.1.8-.4.4-.2.6-.6.2-.4.2-1v-9.5h4.2v14.5h-4.2Zm15.3-16.3q-1.4 0-2-.6-.5-.6-.5-1.4v-.8q0-.8.5-1.4.6-.5 2-.5t1.9.5q.6.6.6 1.4v.8q0 .8-.6 1.4-.5.6-1.9.6Zm-6.7 16.3v-3.2h4.6v-8H990v-3.3h8.8v11.3h4.2v3.2h-13Zm25.2 5.6v-8.2h-.2q-.6 1.3-1.5 2.1-1 .8-2.8.8-1.2 0-2.2-.4-1-.5-1.7-1.4-.7-.9-1.1-2.3-.4-1.5-.4-3.4 0-2 .4-3.4t1.1-2.4q.7-.9 1.7-1.3 1-.5 2.2-.5.9 0 1.6.2l1.2.6q.5.4.8 1 .4.5.7 1.2h.2v-2.7h4.1v20.1h-4.1Zm-2.7-8.5q1.1 0 1.9-.5.8-.6.8-1.7v-4.3q0-1.1-.8-1.6-.8-.6-1.9-.6-1.4 0-2.1.9-.8.8-.8 2.3v2.3q0 1.5.8 2.4.7.8 2.1.8Zm10.3 2.9v-20.7h4.2v11.7h.2l1.9-2.2 3-3.3h4.8l-5.6 5.8 6.2 8.7h-5l-4.2-6.4-1.3 1.4v5h-4.2Zm17.6 5.6v-3.2h5.5v-13.6h-5.6v-3.3h9.8v15.9q0 1.8-1.1 3t-3.3 1.2h-5.3Zm7.6-21.9q-1.4 0-2-.6-.5-.6-.5-1.4v-.8q0-.8.5-1.4.6-.5 2-.5t1.9.5q.6.6.6 1.4v.8q0 .8-.6 1.4-.5.6-1.9.6Zm12.6 16.3h-4.2v-14.5h4.2v2.7h.1l.6-1.2q.4-.5.9-.9t1.2-.7q.7-.2 1.6-.2 1 0 1.9.4.9.3 1.5 1t.9 1.7q.4 1 .4 2.3v9.4h-4.2v-8.8q0-2.8-2.4-2.8-.5 0-.9.1-.5.2-.9.4-.3.3-.5.7-.2.4-.2.9v9.5Z" clip-path="url(#g)" mask="url(#h)"/></svg>