<svg width="1200" height="630" viewBox="0 0 1200 630" xmlns="http://www.w3.org/2000/svg"><mask id="satori_om-id"><rect x="0" y="0" width="1200" height="630" fill="#fff"/></mask><rect x="0" y="0" width="1200" height="630" fill="#fefbfb"/><defs><clipPath id="satori_bc-id-0"><path x="105" y="39" width="1056" height="504" d="M109,39 h1048 a4,4 0 0 1 4,4 v496 a4,4 0 0 1 -4,4 h-1048 a4,4 0 0 1 -4,-4 v-496 a4,4 0 0 1 4,-4"/></clipPath></defs><mask id="satori_om-id-0"><rect x="109" y="43" width="1048" height="496" fill="#fff"/><path width="1056" height="504" fill="none" stroke="#000" stroke-width="8" d="M106.172,40.172 A4,4 0 0 1 109,39 h1048 a4,4 0 0 1 4,4 v496 a4,4 0 0 1 -4,4 h-1048 a4,4 0 0 1 -4,-4 v-496 A4,4 0 0 1 106.172,40.172"/></mask><g opacity="0.9"><path x="105" y="39" width="1056" height="504" fill="#ecebeb" d="M109,39 h1048 a4,4 0 0 1 4,4 v496 a4,4 0 0 1 -4,4 h-1048 a4,4 0 0 1 -4,-4 v-496 a4,4 0 0 1 4,-4"/><path width="1056" height="504" clip-path="url(#satori_bc-id-0)" fill="none" stroke="#000" stroke-width="8" d="M106.172,40.172 A4,4 0 0 1 109,39 h1048 a4,4 0 0 1 4,4 v496 a4,4 0 0 1 -4,4 h-1048 a4,4 0 0 1 -4,-4 v-496 A4,4 0 0 1 106.172,40.172"/></g><defs><clipPath id="satori_bc-id-1"><path x="72" y="63" width="1056" height="504" d="M76,63 h1048 a4,4 0 0 1 4,4 v496 a4,4 0 0 1 -4,4 h-1048 a4,4 0 0 1 -4,-4 v-496 a4,4 0 0 1 4,-4"/></clipPath></defs><mask id="satori_om-id-1"><rect x="76" y="67" width="1048" height="496" fill="#fff"/><path width="1056" height="504" fill="none" stroke="#000" stroke-width="8" d="M73.172,64.172 A4,4 0 0 1 76,63 h1048 a4,4 0 0 1 4,4 v496 a4,4 0 0 1 -4,4 h-1048 a4,4 0 0 1 -4,-4 v-496 A4,4 0 0 1 73.172,64.172"/></mask><path x="72" y="63" width="1056" height="504" fill="#fefbfb" d="M76,63 h1048 a4,4 0 0 1 4,4 v496 a4,4 0 0 1 -4,4 h-1048 a4,4 0 0 1 -4,-4 v-496 a4,4 0 0 1 4,-4"/><path width="1056" height="504" clip-path="url(#satori_bc-id-1)" fill="none" stroke="#000" stroke-width="8" d="M73.172,64.172 A4,4 0 0 1 76,63 h1048 a4,4 0 0 1 4,4 v496 a4,4 0 0 1 -4,4 h-1048 a4,4 0 0 1 -4,-4 v-496 A4,4 0 0 1 73.172,64.172"/><mask id="satori_om-id-1-0"><rect x="128" y="87" width="944" height="446" fill="#fff"/></mask><clipPath id="satori_cp-id-1-0-0"><rect x="128" y="103" width="944" height="94"/></clipPath><mask id="satori_om-id-1-0-0"><rect x="128" y="103" width="944" height="94" fill="#fff"/></mask><path fill="black" d="M148.8 183.8L148.8 183.8Q142.5 183.8 137.8 181.7Q133.1 179.6 130.2 176.0L130.2 176.0L136.5 169.1Q139.2 172.2 142.5 173.6Q145.8 175.0 149.2 175.0L149.2 175.0Q153.1 175.0 155.1 173.3Q157.1 171.6 157.1 168.3L157.1 168.3Q157.1 165.7 155.5 164.3Q154.0 162.9 150.3 162.4L150.3 162.4L145.1 161.5Q138.3 160.3 135.3 156.5Q132.2 152.6 132.2 147.1L132.2 147.1Q132.2 139.8 137 135.8Q141.8 131.8 150.3 131.8L150.3 131.8Q156.2 131.8 160.5 133.6Q164.8 135.4 167.5 138.5L167.5 138.5L161.3 145.4Q159.3 143.1 156.6 141.9Q153.8 140.6 150.4 140.6L150.4 140.6Q143.1 140.6 143.1 146.6L143.1 146.6Q143.1 149.2 144.7 150.5Q146.4 151.8 150.0 152.4L150.0 152.4L155.3 153.4Q161.4 154.4 164.7 158.0Q168.0 161.5 168.0 167.5L168.0 167.5Q168.0 171.0 166.8 174.0Q165.6 177.0 163.1 179.2Q160.7 181.4 157.1 182.6Q153.6 183.8 148.8 183.8ZM194.3 183.8L194.3 183.8Q189.9 183.8 186.4 182.5Q182.9 181.2 180.5 178.6Q178.1 176.1 176.8 172.5Q175.5 168.9 175.5 164.4L175.5 164.4Q175.5 159.8 176.8 156.2Q178.1 152.6 180.5 150.1Q182.9 147.6 186.4 146.3Q189.9 144.9 194.2 144.9L194.2 144.9Q200.4 144.9 204.1 147.4Q207.8 149.9 209.7 154.0L209.7 154.0L201.5 158.5Q200.5 156.3 198.9 154.9Q197.3 153.4 194.2 153.4L194.2 153.4Q190.6 153.4 188.6 155.6Q186.6 157.7 186.6 161.4L186.6 161.4L186.6 167.4Q186.6 171.1 188.6 173.2Q190.6 175.3 194.4 175.3L194.4 175.3Q197.5 175.3 199.2 173.9Q201.0 172.4 202.2 170.1L202.2 170.1L210.3 174.7Q208.3 178.8 204.4 181.3Q200.6 183.8 194.3 183.8ZM219.1 183.0L219.1 129.7L229.7 129.7L229.7 152.6L230.2 152.6Q230.8 151.0 231.8 149.6Q232.7 148.2 234.0 147.2Q235.4 146.2 237.1 145.5Q238.9 144.9 241.1 144.9L241.1 144.9Q243.8 144.9 246.0 145.8Q248.2 146.7 249.8 148.5Q251.4 150.3 252.3 152.9Q253.2 155.5 253.2 158.9L253.2 158.9L253.2 183.0L242.6 183.0L242.6 160.3Q242.6 153.1 236.3 153.1L236.3 153.1Q235.1 153.1 233.9 153.5Q232.7 153.8 231.8 154.5Q230.8 155.2 230.3 156.2Q229.7 157.2 229.7 158.5L229.7 158.5L229.7 183.0L219.1 183.0ZM280.2 183.8L280.2 183.8Q270.8 183.8 266.0 178.6Q261.2 173.4 261.2 164.5L261.2 164.5Q261.2 160.0 262.5 156.3Q263.7 152.7 266.1 150.2Q268.4 147.6 271.7 146.3Q275.1 144.9 279.3 144.9L279.3 144.9Q283.4 144.9 286.8 146.3Q290.1 147.6 292.4 150.0Q294.7 152.5 295.9 156.0Q297.2 159.5 297.2 163.8L297.2 163.8L297.2 167.0L271.8 167.0L271.8 167.6Q271.8 171.2 274.0 173.4Q276.2 175.6 280.6 175.6L280.6 175.6Q283.9 175.6 286.3 174.3Q288.6 173.1 290.4 171.0L290.4 171.0L296.1 177.3Q294.0 179.9 290.1 181.9Q286.2 183.8 280.2 183.8ZM279.3 152.6L279.3 152.6Q275.9 152.6 273.8 154.7Q271.8 156.8 271.8 160.4L271.8 160.4L271.8 161.0L286.8 161.0L286.8 160.4Q286.8 156.7 284.8 154.7Q282.8 152.6 279.3 152.6ZM311.5 183.0L303.0 183.0L303.0 145.8L311.5 145.8L311.5 151.3L312.0 151.3Q312.9 148.7 314.5 146.8Q316.1 144.9 319.1 144.9L319.1 144.9Q324.5 144.9 325.7 151.3L325.7 151.3L326.1 151.3Q326.6 150.0 327.2 148.8Q327.9 147.7 328.8 146.8Q329.7 145.9 331.0 145.4Q332.3 144.9 334.1 144.9L334.1 144.9Q341.8 144.9 341.8 156.4L341.8 156.4L341.8 183.0L333.3 183.0L333.3 157.5Q333.3 154.9 332.4 153.8Q331.5 152.8 330.0 152.8L330.0 152.8Q328.7 152.8 327.7 153.7Q326.7 154.6 326.7 156.5L326.7 156.5L326.7 183.0L318.1 183.0L318.1 157.5Q318.1 154.9 317.3 153.8Q316.4 152.8 315.0 152.8L315.0 152.8Q313.5 152.8 312.5 153.7Q311.5 154.6 311.5 156.5L311.5 156.5L311.5 183.0ZM366.6 183.8L366.6 183.8Q357.2 183.8 352.4 178.6Q347.6 173.4 347.6 164.5L347.6 164.5Q347.6 160.0 348.9 156.3Q350.1 152.7 352.5 150.2Q354.8 147.6 358.1 146.3Q361.5 144.9 365.7 144.9L365.7 144.9Q369.8 144.9 373.2 146.3Q376.5 147.6 378.8 150.0Q381.1 152.5 382.3 156.0Q383.6 159.5 383.6 163.8L383.6 163.8L383.6 167.0L358.2 167.0L358.2 167.6Q358.2 171.2 360.4 173.4Q362.6 175.6 367.0 175.6L367.0 175.6Q370.3 175.6 372.7 174.3Q375.0 173.1 376.8 171.0L376.8 171.0L382.5 177.3Q380.4 179.9 376.5 181.9Q372.6 183.8 366.6 183.8ZM365.7 152.6L365.7 152.6Q362.3 152.6 360.2 154.7Q358.2 156.8 358.2 160.4L358.2 160.4L358.2 161.0L373.2 161.0L373.2 160.4Q373.2 156.7 371.2 154.7Q369.2 152.6 365.7 152.6ZM428.1 183.0L389.5 183.0L389.5 126.8L428.1 126.8L428.1 183.0ZM396.7 134.0L396.7 175.8L420.9 175.8L420.9 134.0L396.7 134.0ZM471.3 183.0L432.7 183.0L432.7 126.8L471.3 126.8L471.3 183.0ZM439.9 134.0L439.9 175.8L464.1 175.8L464.1 134.0L439.9 134.0Z " clip-path="url(#satori_cp-id-1-0-0)" mask="url(#satori_om-id-1-0-0)"/><mask id="satori_om-id-1-0-1"><rect x="128" y="489" width="944" height="36" fill="#fff"/></mask><mask id="satori_om-id-1-0-1-0"><rect x="128" y="489" width="219" height="36" fill="#fff"/></mask><path fill="black" d="M130.7 520.3L130.7 499.6L132.9 499.6L132.9 508.2L133.0 508.2Q134.4 505.5 137.5 505.5L137.5 505.5Q140.1 505.5 141.6 507.5Q143.1 509.5 143.1 513.0L143.1 513.0Q143.1 516.6 141.6 518.6Q140.1 520.6 137.5 520.6L137.5 520.6Q134.4 520.6 133.0 517.9L133.0 517.9L132.9 517.9L132.9 520.3L130.7 520.3ZM136.6 518.6L136.6 518.6Q138.6 518.6 139.6 517.4Q140.7 516.2 140.7 514.3L140.7 514.3L140.7 511.8Q140.7 509.9 139.6 508.7Q138.6 507.5 136.6 507.5L136.6 507.5Q135.8 507.5 135.2 507.7Q134.5 507.9 134.0 508.2Q133.5 508.6 133.2 509.2Q132.9 509.7 132.9 510.4L132.9 510.4L132.9 515.7Q132.9 516.4 133.2 516.9Q133.5 517.5 134.0 517.8Q134.5 518.2 135.2 518.4Q135.8 518.6 136.6 518.6ZM155.4 511.9L157.9 505.8L160.1 505.8L152.9 523.4Q152.7 524.1 152.4 524.5Q152.1 525.0 151.7 525.3Q151.2 525.6 150.7 525.7Q150.1 525.9 149.3 525.9L149.3 525.9L147.1 525.9L147.1 524.0L150.5 524.0L152.1 520.0L146.3 505.8L148.6 505.8L151.0 511.9L153.2 517.4L153.3 517.4L155.4 511.9Z "/><mask id="satori_om-id-1-0-1-0-1"><rect x="162" y="489" width="17" height="36" fill="#fff"/></mask><clipPath id="satori_cp-id-1-0-1-0-2"><rect x="178" y="489" width="168" height="36"/></clipPath><mask id="satori_om-id-1-0-1-0-2"><rect x="178" y="489" width="168" height="36" fill="#fff"/></mask><path fill="black" d="M190.1 520.1L190.1 511.4L190.3 505.9L190.0 505.9L186.4 516.0L182.8 505.9L182.5 505.9L182.7 511.4L182.7 520.1L179.1 520.1L179.1 500.5L184.0 500.5L186.5 507.1L186.7 507.1L189.1 500.5L193.7 500.5L193.7 520.1L190.1 520.1ZM210.8 520.1L208.4 520.1Q207.1 520.1 206.4 519.4Q205.6 518.8 205.4 517.5L205.4 517.5L205.3 517.5Q204.9 519.0 203.7 519.7Q202.6 520.4 200.9 520.4L200.9 520.4Q198.8 520.4 197.5 519.3Q196.3 518.2 196.3 516.1L196.3 516.1Q196.3 513.8 197.9 512.8Q199.6 511.7 202.8 511.7L202.8 511.7L205.1 511.7L205.1 510.9Q205.1 509.6 204.5 509.0Q203.9 508.3 202.4 508.3L202.4 508.3Q201.1 508.3 200.3 508.8Q199.5 509.3 198.9 510.2L198.9 510.2L196.6 508.1Q197.4 506.9 198.9 506.1Q200.5 505.3 202.9 505.3L202.9 505.3Q205.9 505.3 207.6 506.7Q209.2 508.0 209.2 510.8L209.2 510.8L209.2 517.1L210.8 517.1L210.8 520.1ZM202.5 517.7L202.5 517.7Q203.6 517.7 204.3 517.2Q205.1 516.6 205.1 515.6L205.1 515.6L205.1 513.9L202.9 513.9Q200.3 513.9 200.3 515.6L200.3 515.6L200.3 516.2Q200.3 516.9 200.9 517.3Q201.5 517.7 202.5 517.7ZM213.7 520.1L213.7 516.9L217.0 516.9L217.0 508.9L213.7 508.9L213.7 505.6L221.1 505.6L221.1 509.7L221.3 509.7Q221.5 508.9 221.9 508.2Q222.2 507.5 222.8 506.9Q223.3 506.3 224.1 506.0Q224.9 505.6 226.0 505.6L226.0 505.6L227.3 505.6L227.3 509.5L224.3 509.5Q222.7 509.5 221.9 510.4Q221.1 511.3 221.1 512.6L221.1 512.6L221.1 516.9L225.9 516.9L225.9 520.1L213.7 520.1ZM243.3 520.1L237.9 520.1Q235.7 520.1 234.6 518.9Q233.5 517.7 233.5 515.9L233.5 515.9L233.5 508.9L229.6 508.9L229.6 505.6L232.1 505.6Q233.0 505.6 233.4 505.3Q233.8 504.9 233.8 503.9L233.8 503.9L233.8 500.5L237.6 500.5L237.6 505.6L243.3 505.6L243.3 508.9L237.6 508.9L237.6 516.9L243.3 516.9L243.3 520.1ZM254.5 503.8L254.5 503.8Q253.1 503.8 252.6 503.2Q252.0 502.6 252.0 501.8L252.0 501.8L252.0 501.0Q252.0 500.2 252.6 499.6Q253.1 499.1 254.5 499.1L254.5 499.1Q255.9 499.1 256.4 499.6Q257.0 500.2 257.0 501.0L257.0 501.0L257.0 501.8Q257.0 502.6 256.4 503.2Q255.9 503.8 254.5 503.8ZM247.8 520.1L247.8 516.9L252.4 516.9L252.4 508.9L247.8 508.9L247.8 505.6L256.6 505.6L256.6 516.9L260.8 516.9L260.8 520.1L247.8 520.1ZM268.0 520.1L263.8 520.1L263.8 505.6L268.0 505.6L268.0 508.3L268.1 508.3Q268.4 507.7 268.7 507.1Q269.1 506.6 269.6 506.2Q270.1 505.8 270.8 505.5Q271.5 505.3 272.4 505.3L272.4 505.3Q273.4 505.3 274.3 505.7Q275.2 506.0 275.8 506.7Q276.4 507.4 276.7 508.4Q277.1 509.4 277.1 510.7L277.1 510.7L277.1 520.1L272.9 520.1L272.9 511.3Q272.9 508.5 270.5 508.5L270.5 508.5Q270.0 508.5 269.6 508.6Q269.1 508.8 268.7 509.0Q268.4 509.3 268.2 509.7Q268.0 510.1 268.0 510.6L268.0 510.6L268.0 520.1Z M310.8 520.1L298.2 520.1L298.2 500.5L302.4 500.5L302.4 516.6L310.8 516.6L310.8 520.1ZM321.7 503.8L321.7 503.8Q320.3 503.8 319.8 503.2Q319.2 502.6 319.2 501.8L319.2 501.8L319.2 501.0Q319.2 500.2 319.8 499.6Q320.3 499.1 321.7 499.1L321.7 499.1Q323.1 499.1 323.6 499.6Q324.2 500.2 324.2 501.0L324.2 501.0L324.2 501.8Q324.2 502.6 323.6 503.2Q323.1 503.8 321.7 503.8ZM315.0 520.1L315.0 516.9L319.6 516.9L319.6 508.9L315.0 508.9L315.0 505.6L323.8 505.6L323.8 516.9L328.0 516.9L328.0 520.1L315.0 520.1ZM340.0 520.1L340.0 517.5L339.9 517.5Q339.4 518.7 338.4 519.6Q337.3 520.4 335.6 520.4L335.6 520.4Q334.6 520.4 333.7 520.1Q332.8 519.7 332.2 519.0Q331.6 518.3 331.3 517.3Q330.9 516.3 330.9 515.0L330.9 515.0L330.9 505.6L335.1 505.6L335.1 514.4Q335.1 517.2 337.5 517.2L337.5 517.2Q338.0 517.2 338.4 517.1Q338.9 517.0 339.2 516.7Q339.6 516.5 339.8 516.1Q340.0 515.7 340.0 515.1L340.0 515.1L340.0 505.6L344.2 505.6L344.2 520.1L340.0 520.1Z " clip-path="url(#satori_cp-id-1-0-1-0-2)" mask="url(#satori_om-id-1-0-1-0-2)"/><clipPath id="satori_cp-id-1-0-1-1"><rect x="903" y="489" width="168" height="36"/></clipPath><mask id="satori_om-id-1-0-1-1"><rect x="903" y="489" width="168" height="36" fill="#fff"/></mask><path fill="black" d="M915.1 520.1L915.1 511.4L915.3 505.9L915.0 505.9L911.4 516.0L907.8 505.9L907.5 505.9L907.7 511.4L907.7 520.1L904.1 520.1L904.1 500.5L909.0 500.5L911.5 507.1L911.7 507.1L914.1 500.5L918.7 500.5L918.7 520.1L915.1 520.1ZM935.8 520.1L933.4 520.1Q932.1 520.1 931.4 519.4Q930.6 518.8 930.4 517.5L930.4 517.5L930.3 517.5Q929.9 519.0 928.7 519.7Q927.6 520.4 925.9 520.4L925.9 520.4Q923.8 520.4 922.5 519.3Q921.3 518.2 921.3 516.1L921.3 516.1Q921.3 513.8 922.9 512.8Q924.6 511.7 927.8 511.7L927.8 511.7L930.1 511.7L930.1 510.9Q930.1 509.6 929.5 509.0Q928.9 508.3 927.4 508.3L927.4 508.3Q926.1 508.3 925.3 508.8Q924.5 509.3 923.9 510.2L923.9 510.2L921.6 508.1Q922.4 506.9 923.9 506.1Q925.5 505.3 927.9 505.3L927.9 505.3Q930.9 505.3 932.6 506.7Q934.2 508.0 934.2 510.8L934.2 510.8L934.2 517.1L935.8 517.1L935.8 520.1ZM927.5 517.7L927.5 517.7Q928.6 517.7 929.3 517.2Q930.1 516.6 930.1 515.6L930.1 515.6L930.1 513.9L927.9 513.9Q925.3 513.9 925.3 515.6L925.3 515.6L925.3 516.2Q925.3 516.9 925.9 517.3Q926.5 517.7 927.5 517.7ZM938.7 520.1L938.7 516.9L942.0 516.9L942.0 508.9L938.7 508.9L938.7 505.6L946.1 505.6L946.1 509.7L946.3 509.7Q946.5 508.9 946.9 508.2Q947.2 507.5 947.8 506.9Q948.3 506.3 949.1 506.0Q949.9 505.6 951.0 505.6L951.0 505.6L952.3 505.6L952.3 509.5L949.3 509.5Q947.7 509.5 946.9 510.4Q946.1 511.3 946.1 512.6L946.1 512.6L946.1 516.9L950.9 516.9L950.9 520.1L938.7 520.1ZM968.3 520.1L962.9 520.1Q960.7 520.1 959.6 518.9Q958.5 517.7 958.5 515.9L958.5 515.9L958.5 508.9L954.6 508.9L954.6 505.6L957.1 505.6Q958.0 505.6 958.4 505.3Q958.8 504.9 958.8 503.9L958.8 503.9L958.8 500.5L962.6 500.5L962.6 505.6L968.3 505.6L968.3 508.9L962.6 508.9L962.6 516.9L968.3 516.9L968.3 520.1ZM979.5 503.8L979.5 503.8Q978.1 503.8 977.5 503.2Q977.0 502.6 977.0 501.8L977.0 501.8L977.0 501.0Q977.0 500.2 977.5 499.6Q978.1 499.1 979.5 499.1L979.5 499.1Q980.9 499.1 981.4 499.6Q982.0 500.2 982.0 501.0L982.0 501.0L982.0 501.8Q982.0 502.6 981.4 503.2Q980.9 503.8 979.5 503.8ZM972.8 520.1L972.8 516.9L977.4 516.9L977.4 508.9L972.8 508.9L972.8 505.6L981.6 505.6L981.6 516.9L985.8 516.9L985.8 520.1L972.8 520.1ZM993.0 520.1L988.8 520.1L988.8 505.6L993.0 505.6L993.0 508.3L993.1 508.3Q993.4 507.7 993.7 507.1Q994.1 506.6 994.6 506.2Q995.1 505.8 995.8 505.5Q996.5 505.3 997.4 505.3L997.4 505.3Q998.4 505.3 999.3 505.7Q1000.2 506.0 1000.8 506.7Q1001.4 507.4 1001.7 508.4Q1002.1 509.4 1002.1 510.7L1002.1 510.7L1002.1 520.1L997.9 520.1L997.9 511.3Q997.9 508.5 995.5 508.5L995.5 508.5Q995.0 508.5 994.6 508.6Q994.1 508.8 993.7 509.0Q993.4 509.3 993.2 509.7Q993.0 510.1 993.0 510.6L993.0 510.6L993.0 520.1Z M1035.8 520.1L1023.2 520.1L1023.2 500.5L1027.4 500.5L1027.4 516.6L1035.8 516.6L1035.8 520.1ZM1046.7 503.8L1046.7 503.8Q1045.3 503.8 1044.8 503.2Q1044.2 502.6 1044.2 501.8L1044.2 501.8L1044.2 501.0Q1044.2 500.2 1044.8 499.6Q1045.3 499.1 1046.7 499.1L1046.7 499.1Q1048.1 499.1 1048.6 499.6Q1049.2 500.2 1049.2 501.0L1049.2 501.0L1049.2 501.8Q1049.2 502.6 1048.6 503.2Q1048.1 503.8 1046.7 503.8ZM1040.0 520.1L1040.0 516.9L1044.6 516.9L1044.6 508.9L1040.0 508.9L1040.0 505.6L1048.8 505.6L1048.8 516.9L1053.0 516.9L1053.0 520.1L1040.0 520.1ZM1065.0 520.1L1065.0 517.5L1064.9 517.5Q1064.4 518.7 1063.4 519.6Q1062.3 520.4 1060.6 520.4L1060.6 520.4Q1059.6 520.4 1058.7 520.1Q1057.8 519.7 1057.2 519.0Q1056.6 518.3 1056.3 517.3Q1055.9 516.3 1055.9 515.0L1055.9 515.0L1055.9 505.6L1060.1 505.6L1060.1 514.4Q1060.1 517.2 1062.5 517.2L1062.5 517.2Q1063.0 517.2 1063.4 517.1Q1063.9 517.0 1064.2 516.7Q1064.6 516.5 1064.8 516.1Q1065.0 515.7 1065.0 515.1L1065.0 515.1L1065.0 505.6L1069.2 505.6L1069.2 520.1L1065.0 520.1Z " clip-path="url(#satori_cp-id-1-0-1-1)" mask="url(#satori_om-id-1-0-1-1)"/></svg>