<svg width="1200" height="630" viewBox="0 0 1200 630" xmlns="http://www.w3.org/2000/svg"><mask id="satori_om-id"><rect x="0" y="0" width="1200" height="630" fill="#fff"/></mask><rect x="0" y="0" width="1200" height="630" fill="#fefbfb"/><defs><clipPath id="satori_bc-id-0"><path x="105" y="39" width="1056" height="504" d="M109,39 h1048 a4,4 0 0 1 4,4 v496 a4,4 0 0 1 -4,4 h-1048 a4,4 0 0 1 -4,-4 v-496 a4,4 0 0 1 4,-4"/></clipPath></defs><mask id="satori_om-id-0"><rect x="109" y="43" width="1048" height="496" fill="#fff"/><path width="1056" height="504" fill="none" stroke="#000" stroke-width="8" d="M106.172,40.172 A4,4 0 0 1 109,39 h1048 a4,4 0 0 1 4,4 v496 a4,4 0 0 1 -4,4 h-1048 a4,4 0 0 1 -4,-4 v-496 A4,4 0 0 1 106.172,40.172"/></mask><g opacity="0.9"><path x="105" y="39" width="1056" height="504" fill="#ecebeb" d="M109,39 h1048 a4,4 0 0 1 4,4 v496 a4,4 0 0 1 -4,4 h-1048 a4,4 0 0 1 -4,-4 v-496 a4,4 0 0 1 4,-4"/><path width="1056" height="504" clip-path="url(#satori_bc-id-0)" fill="none" stroke="#000" stroke-width="8" d="M106.172,40.172 A4,4 0 0 1 109,39 h1048 a4,4 0 0 1 4,4 v496 a4,4 0 0 1 -4,4 h-1048 a4,4 0 0 1 -4,-4 v-496 A4,4 0 0 1 106.172,40.172"/></g><defs><clipPath id="satori_bc-id-1"><path x="72" y="63" width="1056" height="504" d="M76,63 h1048 a4,4 0 0 1 4,4 v496 a4,4 0 0 1 -4,4 h-1048 a4,4 0 0 1 -4,-4 v-496 a4,4 0 0 1 4,-4"/></clipPath></defs><mask id="satori_om-id-1"><rect x="76" y="67" width="1048" height="496" fill="#fff"/><path width="1056" height="504" fill="none" stroke="#000" stroke-width="8" d="M73.172,64.172 A4,4 0 0 1 76,63 h1048 a4,4 0 0 1 4,4 v496 a4,4 0 0 1 -4,4 h-1048 a4,4 0 0 1 -4,-4 v-496 A4,4 0 0 1 73.172,64.172"/></mask><path x="72" y="63" width="1056" height="504" fill="#fefbfb" d="M76,63 h1048 a4,4 0 0 1 4,4 v496 a4,4 0 0 1 -4,4 h-1048 a4,4 0 0 1 -4,-4 v-496 a4,4 0 0 1 4,-4"/><path width="1056" height="504" clip-path="url(#satori_bc-id-1)" fill="none" stroke="#000" stroke-width="8" d="M73.172,64.172 A4,4 0 0 1 76,63 h1048 a4,4 0 0 1 4,4 v496 a4,4 0 0 1 -4,4 h-1048 a4,4 0 0 1 -4,-4 v-496 A4,4 0 0 1 73.172,64.172"/><mask id="satori_om-id-1-0"><rect x="128" y="87" width="944" height="446" fill="#fff"/></mask><clipPath id="satori_cp-id-1-0-0"><rect x="128" y="103" width="944" height="187"/></clipPath><mask id="satori_om-id-1-0-0"><rect x="128" y="103" width="944" height="187" fill="#fff"/></mask><path fill="black" d="M168.9 183.0L130.3 183.0L130.3 126.8L168.9 126.8L168.9 183.0ZM137.5 134.0L137.5 175.8L161.7 175.8L161.7 134.0L137.5 134.0ZM212.1 183.0L173.5 183.0L173.5 126.8L212.1 126.8L212.1 183.0ZM180.7 134.0L180.7 175.8L204.9 175.8L204.9 134.0L180.7 134.0ZM256.4 186.7L256.4 186.7Q256.4 192.6 251.4 195.4Q246.4 198.2 235.8 198.2L235.8 198.2Q230.5 198.2 227.0 197.6Q223.5 197.0 221.5 195.8Q219.4 194.7 218.6 193.1Q217.8 191.5 217.8 189.6L217.8 189.6Q217.8 186.5 219.7 184.9Q221.5 183.2 224.9 182.4L224.9 182.4L224.9 181.9Q222.5 181.2 221.1 179.9Q219.7 178.6 219.7 176.1L219.7 176.1Q219.7 173.4 221.6 172.1Q223.4 170.8 226.4 170.1L226.4 170.1L226.4 169.6Q223.1 168.0 221.3 165.2Q219.4 162.3 219.4 158.2L219.4 158.2Q219.4 154.9 220.6 152.5Q221.7 150.0 223.9 148.3Q226.0 146.7 228.9 145.8Q231.9 144.9 235.6 144.9L235.6 144.9Q239.1 144.9 242.1 145.7L242.1 145.7L242.1 143.7Q242.1 141.6 243.6 140.1Q245.1 138.7 247.8 138.7L247.8 138.7L254.4 138.7L254.4 146.4L245.4 146.4L245.4 147.1Q248.5 148.7 250.1 151.5Q251.8 154.2 251.8 158.2L251.8 158.2Q251.8 161.4 250.7 163.9Q249.5 166.3 247.4 168.0Q245.2 169.7 242.2 170.6Q239.2 171.4 235.6 171.4L235.6 171.4Q233.9 171.4 232.4 171.3Q230.9 171.1 229.5 170.7L229.5 170.7Q228.7 171.1 228.2 171.8Q227.6 172.4 227.6 173.4L227.6 173.4Q227.6 174.3 228.1 174.8Q228.5 175.3 229.3 175.6Q230.0 175.8 231.0 175.9Q232.0 176.0 233.1 176.0L233.1 176.0L241.6 176.0Q245.6 176.0 248.4 176.8Q251.2 177.6 253.0 179.0Q254.8 180.4 255.6 182.4Q256.4 184.3 256.4 186.7ZM246.3 187.5L246.3 187.5Q246.3 186.0 245.1 185.2Q244.0 184.4 240.8 184.4L240.8 184.4L228.0 184.4Q226.6 185.6 226.6 187.4L226.6 187.4Q226.6 189.1 228.0 190.3Q229.5 191.4 233.0 191.4L233.0 191.4L239.3 191.4Q243.0 191.4 244.6 190.4Q246.3 189.4 246.3 187.5ZM235.6 164.7L235.6 164.7Q238.8 164.7 240.3 163.1Q241.8 161.5 241.8 159.0L241.8 159.0L241.8 157.3Q241.8 154.9 240.3 153.3Q238.8 151.7 235.6 151.7L235.6 151.7Q232.4 151.7 231.0 153.3Q229.5 154.9 229.5 157.3L229.5 157.3L229.5 159.0Q229.5 161.5 231.0 163.1Q232.4 164.7 235.6 164.7ZM281.5 141.0L281.5 141.0Q277.9 141.0 276.5 139.6Q275.1 138.1 275.1 136.0L275.1 136.0L275.1 133.9Q275.1 131.8 276.5 130.3Q277.9 128.9 281.5 128.9L281.5 128.9Q285.1 128.9 286.5 130.3Q287.9 131.8 287.9 133.9L287.9 133.9L287.9 136.0Q287.9 138.1 286.5 139.6Q285.1 141.0 281.5 141.0ZM264.4 183.0L264.4 174.7L276.2 174.7L276.2 154.1L264.4 154.1L264.4 145.8L286.8 145.8L286.8 174.7L297.8 174.7L297.8 183.0L264.4 183.0ZM339.0 183.0L325.3 183.0Q319.5 183.0 316.7 179.9Q313.9 176.9 313.9 172.2L313.9 172.2L313.9 154.1L303.8 154.1L303.8 145.8L310.4 145.8Q312.8 145.8 313.8 144.9Q314.8 143.9 314.8 141.4L314.8 141.4L314.8 132.7L324.6 132.7L324.6 145.8L339.0 145.8L339.0 154.1L324.6 154.1L324.6 174.7L339.0 174.7L339.0 183.0ZM348.7 183.0L348.7 129.7L359.3 129.7L359.3 152.6L359.8 152.6Q360.4 151.0 361.4 149.6Q362.3 148.2 363.6 147.2Q365.0 146.2 366.7 145.5Q368.5 144.9 370.7 144.9L370.7 144.9Q373.4 144.9 375.6 145.8Q377.8 146.7 379.4 148.5Q381.0 150.3 381.9 152.9Q382.8 155.5 382.8 158.9L382.8 158.9L382.8 183.0L372.2 183.0L372.2 160.3Q372.2 153.1 365.9 153.1L365.9 153.1Q364.7 153.1 363.5 153.5Q362.3 153.8 361.4 154.5Q360.4 155.2 359.9 156.2Q359.3 157.2 359.3 158.5L359.3 158.5L359.3 183.0L348.7 183.0ZM415.1 183.0L415.1 176.2L414.6 176.2Q413.4 179.4 410.8 181.6Q408.2 183.8 403.7 183.8L403.7 183.8Q401.0 183.8 398.8 182.9Q396.6 182.0 395.0 180.2Q393.4 178.4 392.5 175.8Q391.6 173.2 391.6 169.8L391.6 169.8L391.6 145.8L402.2 145.8L402.2 168.4Q402.2 175.6 408.5 175.6L408.5 175.6Q409.7 175.6 410.9 175.3Q412.1 175.0 413.0 174.3Q413.9 173.6 414.5 172.6Q415.1 171.6 415.1 170.2L415.1 170.2L415.1 145.8L425.7 145.8L425.7 183.0L415.1 183.0ZM434.6 183.0L434.6 129.7L445.3 129.7L445.3 152.6L445.8 152.6Q447.2 149.3 449.8 147.1Q452.4 144.9 456.8 144.9L456.8 144.9Q459.9 144.9 462.5 146.1Q465.0 147.2 466.9 149.6Q468.7 152.0 469.7 155.7Q470.8 159.3 470.8 164.4L470.8 164.4Q470.8 169.4 469.7 173.1Q468.7 176.8 466.9 179.1Q465.0 181.5 462.5 182.7Q459.9 183.8 456.8 183.8L456.8 183.8Q452.4 183.8 449.8 181.7Q447.2 179.6 445.8 176.2L445.8 176.2L445.3 176.2L445.3 183.0L434.6 183.0ZM452.2 175.5L452.2 175.5Q455.8 175.5 457.8 173.3Q459.7 171.1 459.7 167.3L459.7 167.3L459.7 161.5Q459.7 157.6 457.8 155.4Q455.8 153.2 452.2 153.2L452.2 153.2Q449.4 153.2 447.4 154.6Q445.3 156.0 445.3 158.9L445.3 158.9L445.3 169.8Q445.3 172.8 447.4 174.2Q449.4 175.5 452.2 175.5Z M521.0 197.4L521.0 145.8L531.7 145.8L531.7 152.6L532.2 152.6Q533.6 149.3 536.2 147.1Q538.8 144.9 543.2 144.9L543.2 144.9Q546.3 144.9 548.9 146.1Q551.4 147.2 553.3 149.6Q555.1 152.0 556.1 155.7Q557.2 159.3 557.2 164.4L557.2 164.4Q557.2 169.4 556.1 173.1Q555.1 176.8 553.3 179.1Q551.4 181.5 548.9 182.7Q546.3 183.8 543.2 183.8L543.2 183.8Q538.8 183.8 536.2 181.7Q533.6 179.6 532.2 176.2L532.2 176.2L531.7 176.2L531.7 197.4L521.0 197.4ZM538.6 175.5L538.6 175.5Q542.2 175.5 544.2 173.3Q546.1 171.1 546.1 167.3L546.1 167.3L546.1 161.5Q546.1 157.6 544.2 155.4Q542.2 153.2 538.6 153.2L538.6 153.2Q535.8 153.2 533.8 154.6Q531.7 156.0 531.7 158.9L531.7 158.9L531.7 169.8Q531.7 172.8 533.8 174.2Q535.8 175.5 538.6 175.5ZM601.2 183.0L595.1 183.0Q591.8 183.0 589.7 181.3Q587.7 179.6 587.4 176.4L587.4 176.4L587 176.4Q586.0 180.1 583.0 181.9Q580.0 183.8 575.7 183.8L575.7 183.8Q570.3 183.8 567.0 180.9Q563.7 178.0 563.7 172.7L563.7 172.7Q563.7 166.9 568.0 164.1Q572.2 161.3 580.4 161.3L580.4 161.3L586.4 161.3L586.4 159.4Q586.4 156.1 584.9 154.4Q583.3 152.7 579.7 152.7L579.7 152.7Q576.3 152.7 574.2 154.0Q572.1 155.3 570.6 157.4L570.6 157.4L564.8 152.2Q566.6 149.0 570.6 147.0Q574.6 144.9 580.9 144.9L580.9 144.9Q588.5 144.9 592.8 148.4Q597.1 151.9 597.1 159.0L597.1 159.0L597.1 175.2L601.2 175.2L601.2 183.0ZM579.7 176.8L579.7 176.8Q582.5 176.8 584.5 175.5Q586.4 174.1 586.4 171.5L586.4 171.5L586.4 167.0L580.7 167.0Q574.2 167.0 574.2 171.4L574.2 171.4L574.2 172.9Q574.2 174.8 575.7 175.8Q577.2 176.8 579.7 176.8ZM645.2 186.7L645.2 186.7Q645.2 192.6 640.2 195.4Q635.2 198.2 624.6 198.2L624.6 198.2Q619.3 198.2 615.8 197.6Q612.3 197.0 610.3 195.8Q608.2 194.7 607.4 193.1Q606.6 191.5 606.6 189.6L606.6 189.6Q606.6 186.5 608.5 184.9Q610.3 183.2 613.7 182.4L613.7 182.4L613.7 181.9Q611.3 181.2 609.9 179.9Q608.5 178.6 608.5 176.1L608.5 176.1Q608.5 173.4 610.4 172.1Q612.2 170.8 615.2 170.1L615.2 170.1L615.2 169.6Q611.9 168.0 610.1 165.2Q608.2 162.3 608.2 158.2L608.2 158.2Q608.2 154.9 609.4 152.5Q610.5 150.0 612.7 148.3Q614.8 146.7 617.7 145.8Q620.7 144.9 624.4 144.9L624.4 144.9Q627.9 144.9 630.9 145.7L630.9 145.7L630.9 143.7Q630.9 141.6 632.4 140.1Q633.9 138.7 636.6 138.7L636.6 138.7L643.2 138.7L643.2 146.4L634.2 146.4L634.2 147.1Q637.3 148.7 638.9 151.5Q640.6 154.2 640.6 158.2L640.6 158.2Q640.6 161.4 639.5 163.9Q638.3 166.3 636.2 168.0Q634.0 169.7 631.0 170.6Q628.0 171.4 624.4 171.4L624.4 171.4Q622.7 171.4 621.2 171.3Q619.7 171.1 618.3 170.7L618.3 170.7Q617.5 171.1 617.0 171.8Q616.4 172.4 616.4 173.4L616.4 173.4Q616.4 174.3 616.9 174.8Q617.3 175.3 618.1 175.6Q618.8 175.8 619.8 175.9Q620.8 176.0 621.9 176.0L621.9 176.0L630.4 176.0Q634.4 176.0 637.2 176.8Q640.0 177.6 641.8 179.0Q643.6 180.4 644.4 182.4Q645.2 184.3 645.2 186.7ZM635.1 187.5L635.1 187.5Q635.1 186.0 633.9 185.2Q632.8 184.4 629.6 184.4L629.6 184.4L616.8 184.4Q615.4 185.6 615.4 187.4L615.4 187.4Q615.4 189.1 616.8 190.3Q618.3 191.4 621.8 191.4L621.8 191.4L628.1 191.4Q631.8 191.4 633.4 190.4Q635.1 189.4 635.1 187.5ZM624.4 164.7L624.4 164.7Q627.6 164.7 629.1 163.1Q630.6 161.5 630.6 159.0L630.6 159.0L630.6 157.3Q630.6 154.9 629.1 153.3Q627.6 151.7 624.4 151.7L624.4 151.7Q621.2 151.7 619.8 153.3Q618.3 154.9 618.3 157.3L618.3 157.3L618.3 159.0Q618.3 161.5 619.8 163.1Q621.2 164.7 624.4 164.7ZM669.0 183.8L669.0 183.8Q659.6 183.8 654.8 178.6Q650.0 173.4 650.0 164.5L650.0 164.5Q650.0 160.0 651.3 156.3Q652.5 152.7 654.9 150.2Q657.2 147.6 660.5 146.3Q663.9 144.9 668.1 144.9L668.1 144.9Q672.2 144.9 675.6 146.3Q678.9 147.6 681.2 150.0Q683.5 152.5 684.7 156.0Q686.0 159.5 686.0 163.8L686.0 163.8L686.0 167.0L660.6 167.0L660.6 167.6Q660.6 171.2 662.8 173.4Q665.0 175.6 669.4 175.6L669.4 175.6Q672.7 175.6 675.1 174.3Q677.4 173.1 679.2 171.0L679.2 171.0L684.9 177.3Q682.8 179.9 678.9 181.9Q675.0 183.8 669.0 183.8ZM668.1 152.6L668.1 152.6Q664.7 152.6 662.6 154.7Q660.6 156.8 660.6 160.4L660.6 160.4L660.6 161.0L675.6 161.0L675.6 160.4Q675.6 156.7 673.6 154.7Q671.6 152.6 668.1 152.6ZM710.8 183.8L710.8 183.8Q704.6 183.8 700.0 181.9Q695.4 180.1 693.1 176.8L693.1 176.8L699.1 171.3Q701.3 173.7 704.2 175.0Q707.1 176.3 710.8 176.3L710.8 176.3Q714.0 176.3 715.8 175.4Q717.6 174.4 717.6 172.4L717.6 172.4Q717.6 170.8 716.4 170.2Q715.2 169.6 713.0 169.2L713.0 169.2L707.0 168.3Q704.5 167.9 702.3 167.1Q700.2 166.4 698.6 165.1Q697.0 163.8 696.1 161.9Q695.1 160.1 695.1 157.4L695.1 157.4Q695.1 151.6 699.6 148.2Q704.1 144.9 712.1 144.9L712.1 144.9Q717.6 144.9 721.5 146.4Q725.3 147.9 727.6 150.6L727.6 150.6L722.3 156.7Q720.6 154.9 718.0 153.6Q715.4 152.4 711.8 152.4L711.8 152.4Q705.6 152.4 705.6 156.2L705.6 156.2Q705.6 157.8 706.8 158.4Q708.0 159.0 710.2 159.4L710.2 159.4L716.1 160.3Q718.6 160.7 720.8 161.5Q722.9 162.2 724.6 163.5Q726.2 164.8 727.1 166.7Q728.0 168.6 728.0 171.2L728.0 171.2Q728.0 177.0 723.5 180.4Q719.0 183.8 710.8 183.8Z M802.2 178.5L793.0 178.5L793.0 165.2L780.5 165.2L780.5 156.7L793.0 156.7L793.0 143.5L802.2 143.5L802.2 156.7L814.7 156.7L814.7 165.2L802.2 165.2L802.2 178.5Z M151.9 234.6L151.9 234.6Q148.3 234.6 146.9 233.2Q145.5 231.7 145.5 229.6L145.5 229.6L145.5 227.5Q145.5 225.4 146.9 223.9Q148.3 222.5 151.9 222.5L151.9 222.5Q155.5 222.5 156.9 223.9Q158.3 225.4 158.3 227.5L158.3 227.5L158.3 229.6Q158.3 231.7 156.9 233.2Q155.5 234.6 151.9 234.6ZM134.8 276.6L134.8 268.3L146.6 268.3L146.6 247.7L134.8 247.7L134.8 239.4L157.2 239.4L157.2 268.3L168.2 268.3L168.2 276.6L134.8 276.6ZM192.4 277.4L192.4 277.4Q186.2 277.4 181.6 275.5Q177.0 273.7 174.7 270.4L174.7 270.4L180.7 264.9Q182.9 267.3 185.8 268.6Q188.7 269.9 192.4 269.9L192.4 269.9Q195.6 269.9 197.4 269.0Q199.2 268.0 199.2 266.0L199.2 266.0Q199.2 264.4 198.0 263.8Q196.8 263.2 194.6 262.8L194.6 262.8L188.6 261.9Q186.1 261.5 183.9 260.7Q181.8 260.0 180.2 258.7Q178.6 257.4 177.7 255.5Q176.7 253.7 176.7 251.0L176.7 251.0Q176.7 245.2 181.2 241.8Q185.7 238.5 193.7 238.5L193.7 238.5Q199.2 238.5 203.1 240.0Q206.9 241.5 209.2 244.2L209.2 244.2L203.9 250.3Q202.2 248.5 199.6 247.2Q197.0 246.0 193.4 246.0L193.4 246.0Q187.2 246.0 187.2 249.8L187.2 249.8Q187.2 251.4 188.4 252.0Q189.6 252.6 191.8 253.0L191.8 253.0L197.7 253.9Q200.2 254.3 202.4 255.1Q204.5 255.8 206.2 257.1Q207.8 258.4 208.7 260.3Q209.6 262.2 209.6 264.8L209.6 264.8Q209.6 270.6 205.1 274.0Q200.6 277.4 192.4 277.4ZM235.6 277.4L235.6 277.4Q229.4 277.4 224.8 275.5Q220.2 273.7 217.9 270.4L217.9 270.4L223.9 264.9Q226.1 267.3 229.0 268.6Q231.9 269.9 235.6 269.9L235.6 269.9Q238.8 269.9 240.6 269.0Q242.4 268.0 242.4 266.0L242.4 266.0Q242.4 264.4 241.2 263.8Q240.0 263.2 237.8 262.8L237.8 262.8L231.8 261.9Q229.3 261.5 227.1 260.7Q225.0 260.0 223.4 258.7Q221.8 257.4 220.9 255.5Q219.9 253.7 219.9 251.0L219.9 251.0Q219.9 245.2 224.4 241.8Q228.9 238.5 236.9 238.5L236.9 238.5Q242.4 238.5 246.3 240.0Q250.1 241.5 252.4 244.2L252.4 244.2L247.1 250.3Q245.4 248.5 242.8 247.2Q240.2 246.0 236.6 246.0L236.6 246.0Q230.4 246.0 230.4 249.8L230.4 249.8Q230.4 251.4 231.6 252.0Q232.8 252.6 235.0 253.0L235.0 253.0L240.9 253.9Q243.4 254.3 245.6 255.1Q247.7 255.8 249.4 257.1Q251.0 258.4 251.9 260.3Q252.8 262.2 252.8 264.8L252.8 264.8Q252.8 270.6 248.3 274.0Q243.8 277.4 235.6 277.4ZM285.5 276.6L285.5 269.8L285.0 269.8Q283.8 273.0 281.2 275.2Q278.6 277.4 274.1 277.4L274.1 277.4Q271.4 277.4 269.2 276.5Q267.0 275.6 265.4 273.8Q263.8 272.0 262.9 269.4Q262.0 266.8 262.0 263.4L262.0 263.4L262.0 239.4L272.6 239.4L272.6 262.0Q272.6 269.2 278.9 269.2L278.9 269.2Q280.1 269.2 281.3 268.9Q282.5 268.6 283.4 267.9Q284.3 267.2 284.9 266.2Q285.5 265.2 285.5 263.8L285.5 263.8L285.5 239.4L296.1 239.4L296.1 276.6L285.5 276.6ZM323.4 277.4L323.4 277.4Q314.0 277.4 309.2 272.2Q304.4 267.0 304.4 258.1L304.4 258.1Q304.4 253.6 305.7 249.9Q306.9 246.3 309.3 243.8Q311.6 241.2 314.9 239.9Q318.3 238.5 322.5 238.5L322.5 238.5Q326.6 238.5 330.0 239.9Q333.3 241.2 335.6 243.6Q337.9 246.1 339.1 249.6Q340.4 253.1 340.4 257.4L340.4 257.4L340.4 260.6L315.0 260.6L315.0 261.2Q315.0 264.8 317.2 267.0Q319.4 269.2 323.8 269.2L323.8 269.2Q327.1 269.2 329.5 267.9Q331.8 266.7 333.6 264.6L333.6 264.6L339.3 270.9Q337.2 273.5 333.3 275.5Q329.4 277.4 323.4 277.4ZM322.5 246.2L322.5 246.2Q319.1 246.2 317.0 248.3Q315.0 250.4 315.0 254.0L315.0 254.0L315.0 254.6L330.0 254.6L330.0 254.0Q330.0 250.3 328.0 248.3Q326.0 246.2 322.5 246.2ZM365.2 277.4L365.2 277.4Q359.0 277.4 354.4 275.5Q349.8 273.7 347.5 270.4L347.5 270.4L353.5 264.9Q355.7 267.3 358.6 268.6Q361.5 269.9 365.2 269.9L365.2 269.9Q368.4 269.9 370.2 269.0Q372.0 268.0 372.0 266.0L372.0 266.0Q372.0 264.4 370.8 263.8Q369.6 263.2 367.4 262.8L367.4 262.8L361.4 261.9Q358.9 261.5 356.7 260.7Q354.6 260.0 353.0 258.7Q351.4 257.4 350.5 255.5Q349.5 253.7 349.5 251.0L349.5 251.0Q349.5 245.2 354.0 241.8Q358.5 238.5 366.5 238.5L366.5 238.5Q372.0 238.5 375.9 240.0Q379.7 241.5 382.0 244.2L382.0 244.2L376.7 250.3Q375.0 248.5 372.4 247.2Q369.8 246.0 366.2 246.0L366.2 246.0Q360.0 246.0 360.0 249.8L360.0 249.8Q360.0 251.4 361.2 252.0Q362.4 252.6 364.6 253.0L364.6 253.0L370.5 253.9Q373.0 254.3 375.2 255.1Q377.3 255.8 379.0 257.1Q380.6 258.4 381.5 260.3Q382.4 262.2 382.4 264.8L382.4 264.8Q382.4 270.6 377.9 274.0Q373.4 277.4 365.2 277.4Z M456.6 272.1L447.4 272.1L447.4 258.8L434.9 258.8L434.9 250.3L447.4 250.3L447.4 237.1L456.6 237.1L456.6 250.3L469.1 250.3L469.1 258.8L456.6 258.8L456.6 272.1Z M558.0 276.6L551.9 276.6Q548.6 276.6 546.5 274.9Q544.5 273.2 544.2 270.0L544.2 270.0L543.8 270.0Q542.8 273.7 539.8 275.5Q536.8 277.4 532.5 277.4L532.5 277.4Q527.1 277.4 523.8 274.5Q520.5 271.6 520.5 266.3L520.5 266.3Q520.5 260.5 524.8 257.7Q529.0 254.9 537.2 254.9L537.2 254.9L543.2 254.9L543.2 253.0Q543.2 249.7 541.7 248.0Q540.1 246.3 536.5 246.3L536.5 246.3Q533.1 246.3 531.0 247.6Q528.9 248.9 527.4 251.0L527.4 251.0L521.6 245.8Q523.4 242.6 527.4 240.6Q531.4 238.5 537.7 238.5L537.7 238.5Q545.3 238.5 549.6 242.0Q553.9 245.5 553.9 252.6L553.9 252.6L553.9 268.8L558.0 268.8L558.0 276.6ZM536.5 270.4L536.5 270.4Q539.3 270.4 541.3 269.1Q543.2 267.7 543.2 265.1L543.2 265.1L543.2 260.6L537.5 260.6Q531.0 260.6 531.0 265.0L531.0 265.0L531.0 266.5Q531.0 268.4 532.5 269.4Q534.0 270.4 536.5 270.4ZM564.2 291.0L564.2 239.4L574.9 239.4L574.9 246.2L575.4 246.2Q576.8 242.9 579.4 240.7Q582.0 238.5 586.4 238.5L586.4 238.5Q589.5 238.5 592.1 239.7Q594.6 240.8 596.5 243.2Q598.3 245.6 599.3 249.3Q600.4 252.9 600.4 258.0L600.4 258.0Q600.4 263.0 599.3 266.7Q598.3 270.4 596.5 272.7Q594.6 275.1 592.1 276.3Q589.5 277.4 586.4 277.4L586.4 277.4Q582.0 277.4 579.4 275.3Q576.8 273.2 575.4 269.8L575.4 269.8L574.9 269.8L574.9 291.0L564.2 291.0ZM581.8 269.1L581.8 269.1Q585.4 269.1 587.4 266.9Q589.3 264.7 589.3 260.9L589.3 260.9L589.3 255.1Q589.3 251.2 587.4 249.0Q585.4 246.8 581.8 246.8L581.8 246.8Q579.0 246.8 577.0 248.2Q574.9 249.6 574.9 252.5L574.9 252.5L574.9 263.4Q574.9 266.4 577.0 267.8Q579.0 269.1 581.8 269.1ZM627.1 234.6L627.1 234.6Q623.5 234.6 622.1 233.2Q620.7 231.7 620.7 229.6L620.7 229.6L620.7 227.5Q620.7 225.4 622.1 223.9Q623.5 222.5 627.1 222.5L627.1 222.5Q630.7 222.5 632.1 223.9Q633.5 225.4 633.5 227.5L633.5 227.5L633.5 229.6Q633.5 231.7 632.1 233.2Q630.7 234.6 627.1 234.6ZM610.0 276.6L610.0 268.3L621.8 268.3L621.8 247.7L610.0 247.7L610.0 239.4L632.4 239.4L632.4 268.3L643.4 268.3L643.4 276.6L610.0 276.6ZM687.3 276.6L648.7 276.6L648.7 220.4L687.3 220.4L687.3 276.6ZM655.9 227.6L655.9 269.4L680.1 269.4L680.1 227.6L655.9 227.6ZM730.5 276.6L691.9 276.6L691.9 220.4L730.5 220.4L730.5 276.6ZM699.1 227.6L699.1 269.4L723.3 269.4L723.3 227.6L699.1 227.6ZM773.7 276.6L735.1 276.6L735.1 220.4L773.7 220.4L773.7 276.6ZM742.3 227.6L742.3 269.4L766.5 269.4L766.5 227.6L742.3 227.6ZM816.9 276.6L778.3 276.6L778.3 220.4L816.9 220.4L816.9 276.6ZM785.5 227.6L785.5 269.4L809.7 269.4L809.7 227.6L785.5 227.6ZM860.1 276.6L821.5 276.6L821.5 220.4L860.1 220.4L860.1 276.6ZM828.7 227.6L828.7 269.4L852.9 269.4L852.9 227.6L828.7 227.6ZM903.3 276.6L864.7 276.6L864.7 220.4L903.3 220.4L903.3 276.6ZM871.9 227.6L871.9 269.4L896.1 269.4L896.1 227.6L871.9 227.6Z " clip-path="url(#satori_cp-id-1-0-0)" mask="url(#satori_om-id-1-0-0)"/><mask id="satori_om-id-1-0-1"><rect x="128" y="489" width="944" height="36" fill="#fff"/></mask><mask id="satori_om-id-1-0-1-0"><rect x="128" y="489" width="219" height="36" fill="#fff"/></mask><path fill="black" d="M130.7 520.3L130.7 499.6L132.9 499.6L132.9 508.2L133.0 508.2Q134.4 505.5 137.5 505.5L137.5 505.5Q140.1 505.5 141.6 507.5Q143.1 509.5 143.1 513.0L143.1 513.0Q143.1 516.6 141.6 518.6Q140.1 520.6 137.5 520.6L137.5 520.6Q134.4 520.6 133.0 517.9L133.0 517.9L132.9 517.9L132.9 520.3L130.7 520.3ZM136.6 518.6L136.6 518.6Q138.6 518.6 139.6 517.4Q140.7 516.2 140.7 514.3L140.7 514.3L140.7 511.8Q140.7 509.9 139.6 508.7Q138.6 507.5 136.6 507.5L136.6 507.5Q135.8 507.5 135.2 507.7Q134.5 507.9 134.0 508.2Q133.5 508.6 133.2 509.2Q132.9 509.7 132.9 510.4L132.9 510.4L132.9 515.7Q132.9 516.4 133.2 516.9Q133.5 517.5 134.0 517.8Q134.5 518.2 135.2 518.4Q135.8 518.6 136.6 518.6ZM155.4 511.9L157.9 505.8L160.1 505.8L152.9 523.4Q152.7 524.1 152.4 524.5Q152.1 525.0 151.7 525.3Q151.2 525.6 150.7 525.7Q150.1 525.9 149.3 525.9L149.3 525.9L147.1 525.9L147.1 524.0L150.5 524.0L152.1 520.0L146.3 505.8L148.6 505.8L151.0 511.9L153.2 517.4L153.3 517.4L155.4 511.9Z "/><mask id="satori_om-id-1-0-1-0-1"><rect x="162" y="489" width="17" height="36" fill="#fff"/></mask><clipPath id="satori_cp-id-1-0-1-0-2"><rect x="178" y="489" width="168" height="36"/></clipPath><mask id="satori_om-id-1-0-1-0-2"><rect x="178" y="489" width="168" height="36" fill="#fff"/></mask><path fill="black" d="M190.1 520.1L190.1 511.4L190.3 505.9L190.0 505.9L186.4 516.0L182.8 505.9L182.5 505.9L182.7 511.4L182.7 520.1L179.1 520.1L179.1 500.5L184.0 500.5L186.5 507.1L186.7 507.1L189.1 500.5L193.7 500.5L193.7 520.1L190.1 520.1ZM210.8 520.1L208.4 520.1Q207.1 520.1 206.4 519.4Q205.6 518.8 205.4 517.5L205.4 517.5L205.3 517.5Q204.9 519.0 203.7 519.7Q202.6 520.4 200.9 520.4L200.9 520.4Q198.8 520.4 197.5 519.3Q196.3 518.2 196.3 516.1L196.3 516.1Q196.3 513.8 197.9 512.8Q199.6 511.7 202.8 511.7L202.8 511.7L205.1 511.7L205.1 510.9Q205.1 509.6 204.5 509.0Q203.9 508.3 202.4 508.3L202.4 508.3Q201.1 508.3 200.3 508.8Q199.5 509.3 198.9 510.2L198.9 510.2L196.6 508.1Q197.4 506.9 198.9 506.1Q200.5 505.3 202.9 505.3L202.9 505.3Q205.9 505.3 207.6 506.7Q209.2 508.0 209.2 510.8L209.2 510.8L209.2 517.1L210.8 517.1L210.8 520.1ZM202.5 517.7L202.5 517.7Q203.6 517.7 204.3 517.2Q205.1 516.6 205.1 515.6L205.1 515.6L205.1 513.9L202.9 513.9Q200.3 513.9 200.3 515.6L200.3 515.6L200.3 516.2Q200.3 516.9 200.9 517.3Q201.5 517.7 202.5 517.7ZM213.7 520.1L213.7 516.9L217.0 516.9L217.0 508.9L213.7 508.9L213.7 505.6L221.1 505.6L221.1 509.7L221.3 509.7Q221.5 508.9 221.9 508.2Q222.2 507.5 222.8 506.9Q223.3 506.3 224.1 506.0Q224.9 505.6 226.0 505.6L226.0 505.6L227.3 505.6L227.3 509.5L224.3 509.5Q222.7 509.5 221.9 510.4Q221.1 511.3 221.1 512.6L221.1 512.6L221.1 516.9L225.9 516.9L225.9 520.1L213.7 520.1ZM243.3 520.1L237.9 520.1Q235.7 520.1 234.6 518.9Q233.5 517.7 233.5 515.9L233.5 515.9L233.5 508.9L229.6 508.9L229.6 505.6L232.1 505.6Q233.0 505.6 233.4 505.3Q233.8 504.9 233.8 503.9L233.8 503.9L233.8 500.5L237.6 500.5L237.6 505.6L243.3 505.6L243.3 508.9L237.6 508.9L237.6 516.9L243.3 516.9L243.3 520.1ZM254.5 503.8L254.5 503.8Q253.1 503.8 252.6 503.2Q252.0 502.6 252.0 501.8L252.0 501.8L252.0 501.0Q252.0 500.2 252.6 499.6Q253.1 499.1 254.5 499.1L254.5 499.1Q255.9 499.1 256.4 499.6Q257.0 500.2 257.0 501.0L257.0 501.0L257.0 501.8Q257.0 502.6 256.4 503.2Q255.9 503.8 254.5 503.8ZM247.8 520.1L247.8 516.9L252.4 516.9L252.4 508.9L247.8 508.9L247.8 505.6L256.6 505.6L256.6 516.9L260.8 516.9L260.8 520.1L247.8 520.1ZM268.0 520.1L263.8 520.1L263.8 505.6L268.0 505.6L268.0 508.3L268.1 508.3Q268.4 507.7 268.7 507.1Q269.1 506.6 269.6 506.2Q270.1 505.8 270.8 505.5Q271.5 505.3 272.4 505.3L272.4 505.3Q273.4 505.3 274.3 505.7Q275.2 506.0 275.8 506.7Q276.4 507.4 276.7 508.4Q277.1 509.4 277.1 510.7L277.1 510.7L277.1 520.1L272.9 520.1L272.9 511.3Q272.9 508.5 270.5 508.5L270.5 508.5Q270.0 508.5 269.6 508.6Q269.1 508.8 268.7 509.0Q268.4 509.3 268.2 509.7Q268.0 510.1 268.0 510.6L268.0 510.6L268.0 520.1Z M310.8 520.1L298.2 520.1L298.2 500.5L302.4 500.5L302.4 516.6L310.8 516.6L310.8 520.1ZM321.7 503.8L321.7 503.8Q320.3 503.8 319.8 503.2Q319.2 502.6 319.2 501.8L319.2 501.8L319.2 501.0Q319.2 500.2 319.8 499.6Q320.3 499.1 321.7 499.1L321.7 499.1Q323.1 499.1 323.6 499.6Q324.2 500.2 324.2 501.0L324.2 501.0L324.2 501.8Q324.2 502.6 323.6 503.2Q323.1 503.8 321.7 503.8ZM315.0 520.1L315.0 516.9L319.6 516.9L319.6 508.9L315.0 508.9L315.0 505.6L323.8 505.6L323.8 516.9L328.0 516.9L328.0 520.1L315.0 520.1ZM340.0 520.1L340.0 517.5L339.9 517.5Q339.4 518.7 338.4 519.6Q337.3 520.4 335.6 520.4L335.6 520.4Q334.6 520.4 333.7 520.1Q332.8 519.7 332.2 519.0Q331.6 518.3 331.3 517.3Q330.9 516.3 330.9 515.0L330.9 515.0L330.9 505.6L335.1 505.6L335.1 514.4Q335.1 517.2 337.5 517.2L337.5 517.2Q338.0 517.2 338.4 517.1Q338.9 517.0 339.2 516.7Q339.6 516.5 339.8 516.1Q340.0 515.7 340.0 515.1L340.0 515.1L340.0 505.6L344.2 505.6L344.2 520.1L340.0 520.1Z " clip-path="url(#satori_cp-id-1-0-1-0-2)" mask="url(#satori_om-id-1-0-1-0-2)"/><clipPath id="satori_cp-id-1-0-1-1"><rect x="903" y="489" width="168" height="36"/></clipPath><mask id="satori_om-id-1-0-1-1"><rect x="903" y="489" width="168" height="36" fill="#fff"/></mask><path fill="black" d="M915.1 520.1L915.1 511.4L915.3 505.9L915.0 505.9L911.4 516.0L907.8 505.9L907.5 505.9L907.7 511.4L907.7 520.1L904.1 520.1L904.1 500.5L909.0 500.5L911.5 507.1L911.7 507.1L914.1 500.5L918.7 500.5L918.7 520.1L915.1 520.1ZM935.8 520.1L933.4 520.1Q932.1 520.1 931.4 519.4Q930.6 518.8 930.4 517.5L930.4 517.5L930.3 517.5Q929.9 519.0 928.7 519.7Q927.6 520.4 925.9 520.4L925.9 520.4Q923.8 520.4 922.5 519.3Q921.3 518.2 921.3 516.1L921.3 516.1Q921.3 513.8 922.9 512.8Q924.6 511.7 927.8 511.7L927.8 511.7L930.1 511.7L930.1 510.9Q930.1 509.6 929.5 509.0Q928.9 508.3 927.4 508.3L927.4 508.3Q926.1 508.3 925.3 508.8Q924.5 509.3 923.9 510.2L923.9 510.2L921.6 508.1Q922.4 506.9 923.9 506.1Q925.5 505.3 927.9 505.3L927.9 505.3Q930.9 505.3 932.6 506.7Q934.2 508.0 934.2 510.8L934.2 510.8L934.2 517.1L935.8 517.1L935.8 520.1ZM927.5 517.7L927.5 517.7Q928.6 517.7 929.3 517.2Q930.1 516.6 930.1 515.6L930.1 515.6L930.1 513.9L927.9 513.9Q925.3 513.9 925.3 515.6L925.3 515.6L925.3 516.2Q925.3 516.9 925.9 517.3Q926.5 517.7 927.5 517.7ZM938.7 520.1L938.7 516.9L942.0 516.9L942.0 508.9L938.7 508.9L938.7 505.6L946.1 505.6L946.1 509.7L946.3 509.7Q946.5 508.9 946.9 508.2Q947.2 507.5 947.8 506.9Q948.3 506.3 949.1 506.0Q949.9 505.6 951.0 505.6L951.0 505.6L952.3 505.6L952.3 509.5L949.3 509.5Q947.7 509.5 946.9 510.4Q946.1 511.3 946.1 512.6L946.1 512.6L946.1 516.9L950.9 516.9L950.9 520.1L938.7 520.1ZM968.3 520.1L962.9 520.1Q960.7 520.1 959.6 518.9Q958.5 517.7 958.5 515.9L958.5 515.9L958.5 508.9L954.6 508.9L954.6 505.6L957.1 505.6Q958.0 505.6 958.4 505.3Q958.8 504.9 958.8 503.9L958.8 503.9L958.8 500.5L962.6 500.5L962.6 505.6L968.3 505.6L968.3 508.9L962.6 508.9L962.6 516.9L968.3 516.9L968.3 520.1ZM979.5 503.8L979.5 503.8Q978.1 503.8 977.5 503.2Q977.0 502.6 977.0 501.8L977.0 501.8L977.0 501.0Q977.0 500.2 977.5 499.6Q978.1 499.1 979.5 499.1L979.5 499.1Q980.9 499.1 981.4 499.6Q982.0 500.2 982.0 501.0L982.0 501.0L982.0 501.8Q982.0 502.6 981.4 503.2Q980.9 503.8 979.5 503.8ZM972.8 520.1L972.8 516.9L977.4 516.9L977.4 508.9L972.8 508.9L972.8 505.6L981.6 505.6L981.6 516.9L985.8 516.9L985.8 520.1L972.8 520.1ZM993.0 520.1L988.8 520.1L988.8 505.6L993.0 505.6L993.0 508.3L993.1 508.3Q993.4 507.7 993.7 507.1Q994.1 506.6 994.6 506.2Q995.1 505.8 995.8 505.5Q996.5 505.3 997.4 505.3L997.4 505.3Q998.4 505.3 999.3 505.7Q1000.2 506.0 1000.8 506.7Q1001.4 507.4 1001.7 508.4Q1002.1 509.4 1002.1 510.7L1002.1 510.7L1002.1 520.1L997.9 520.1L997.9 511.3Q997.9 508.5 995.5 508.5L995.5 508.5Q995.0 508.5 994.6 508.6Q994.1 508.8 993.7 509.0Q993.4 509.3 993.2 509.7Q993.0 510.1 993.0 510.6L993.0 510.6L993.0 520.1Z M1035.8 520.1L1023.2 520.1L1023.2 500.5L1027.4 500.5L1027.4 516.6L1035.8 516.6L1035.8 520.1ZM1046.7 503.8L1046.7 503.8Q1045.3 503.8 1044.8 503.2Q1044.2 502.6 1044.2 501.8L1044.2 501.8L1044.2 501.0Q1044.2 500.2 1044.8 499.6Q1045.3 499.1 1046.7 499.1L1046.7 499.1Q1048.1 499.1 1048.6 499.6Q1049.2 500.2 1049.2 501.0L1049.2 501.0L1049.2 501.8Q1049.2 502.6 1048.6 503.2Q1048.1 503.8 1046.7 503.8ZM1040.0 520.1L1040.0 516.9L1044.6 516.9L1044.6 508.9L1040.0 508.9L1040.0 505.6L1048.8 505.6L1048.8 516.9L1053.0 516.9L1053.0 520.1L1040.0 520.1ZM1065.0 520.1L1065.0 517.5L1064.9 517.5Q1064.4 518.7 1063.4 519.6Q1062.3 520.4 1060.6 520.4L1060.6 520.4Q1059.6 520.4 1058.7 520.1Q1057.8 519.7 1057.2 519.0Q1056.6 518.3 1056.3 517.3Q1055.9 516.3 1055.9 515.0L1055.9 515.0L1055.9 505.6L1060.1 505.6L1060.1 514.4Q1060.1 517.2 1062.5 517.2L1062.5 517.2Q1063.0 517.2 1063.4 517.1Q1063.9 517.0 1064.2 516.7Q1064.6 516.5 1064.8 516.1Q1065.0 515.7 1065.0 515.1L1065.0 515.1L1065.0 505.6L1069.2 505.6L1069.2 520.1L1065.0 520.1Z " clip-path="url(#satori_cp-id-1-0-1-1)" mask="url(#satori_om-id-1-0-1-1)"/></svg>