<svg width="1200" height="630" viewBox="0 0 1200 630" xmlns="http://www.w3.org/2000/svg"><mask id="satori_om-id"><rect x="0" y="0" width="1200" height="630" fill="#fff"/></mask><rect x="0" y="0" width="1200" height="630" fill="#fefbfb"/><defs><clipPath id="satori_bc-id-0"><path x="105" y="39" width="1056" height="504" d="M109,39 h1048 a4,4 0 0 1 4,4 v496 a4,4 0 0 1 -4,4 h-1048 a4,4 0 0 1 -4,-4 v-496 a4,4 0 0 1 4,-4"/></clipPath></defs><mask id="satori_om-id-0"><rect x="109" y="43" width="1048" height="496" fill="#fff"/><path width="1056" height="504" fill="none" stroke="#000" stroke-width="8" d="M106.172,40.172 A4,4 0 0 1 109,39 h1048 a4,4 0 0 1 4,4 v496 a4,4 0 0 1 -4,4 h-1048 a4,4 0 0 1 -4,-4 v-496 A4,4 0 0 1 106.172,40.172"/></mask><g opacity="0.9"><path x="105" y="39" width="1056" height="504" fill="#ecebeb" d="M109,39 h1048 a4,4 0 0 1 4,4 v496 a4,4 0 0 1 -4,4 h-1048 a4,4 0 0 1 -4,-4 v-496 a4,4 0 0 1 4,-4"/><path width="1056" height="504" clip-path="url(#satori_bc-id-0)" fill="none" stroke="#000" stroke-width="8" d="M106.172,40.172 A4,4 0 0 1 109,39 h1048 a4,4 0 0 1 4,4 v496 a4,4 0 0 1 -4,4 h-1048 a4,4 0 0 1 -4,-4 v-496 A4,4 0 0 1 106.172,40.172"/></g><defs><clipPath id="satori_bc-id-1"><path x="72" y="63" width="1056" height="504" d="M76,63 h1048 a4,4 0 0 1 4,4 v496 a4,4 0 0 1 -4,4 h-1048 a4,4 0 0 1 -4,-4 v-496 a4,4 0 0 1 4,-4"/></clipPath></defs><mask id="satori_om-id-1"><rect x="76" y="67" width="1048" height="496" fill="#fff"/><path width="1056" height="504" fill="none" stroke="#000" stroke-width="8" d="M73.172,64.172 A4,4 0 0 1 76,63 h1048 a4,4 0 0 1 4,4 v496 a4,4 0 0 1 -4,4 h-1048 a4,4 0 0 1 -4,-4 v-496 A4,4 0 0 1 73.172,64.172"/></mask><path x="72" y="63" width="1056" height="504" fill="#fefbfb" d="M76,63 h1048 a4,4 0 0 1 4,4 v496 a4,4 0 0 1 -4,4 h-1048 a4,4 0 0 1 -4,-4 v-496 a4,4 0 0 1 4,-4"/><path width="1056" height="504" clip-path="url(#satori_bc-id-1)" fill="none" stroke="#000" stroke-width="8" d="M73.172,64.172 A4,4 0 0 1 76,63 h1048 a4,4 0 0 1 4,4 v496 a4,4 0 0 1 -4,4 h-1048 a4,4 0 0 1 -4,-4 v-496 A4,4 0 0 1 73.172,64.172"/><mask id="satori_om-id-1-0"><rect x="128" y="87" width="944" height="446" fill="#fff"/></mask><clipPath id="satori_cp-id-1-0-0"><rect x="128" y="103" width="944" height="94"/></clipPath><mask id="satori_om-id-1-0-0"><rect x="128" y="103" width="944" height="94" fill="#fff"/></mask><path fill="black" d="M168.9 183.0L130.3 183.0L130.3 126.8L168.9 126.8L168.9 183.0ZM137.5 134.0L137.5 175.8L161.7 175.8L161.7 134.0L137.5 134.0ZM212.1 183.0L173.5 183.0L173.5 126.8L212.1 126.8L212.1 183.0ZM180.7 134.0L180.7 175.8L204.9 175.8L204.9 134.0L180.7 134.0ZM255.3 183.0L216.7 183.0L216.7 126.8L255.3 126.8L255.3 183.0ZM223.9 134.0L223.9 175.8L248.1 175.8L248.1 134.0L223.9 134.0ZM298.5 183.0L259.9 183.0L259.9 126.8L298.5 126.8L298.5 183.0ZM267.1 134.0L267.1 175.8L291.3 175.8L291.3 134.0L267.1 134.0ZM341.7 183.0L303.1 183.0L303.1 126.8L341.7 126.8L341.7 183.0ZM310.3 134.0L310.3 175.8L334.5 175.8L334.5 134.0L310.3 134.0ZM387.2 165.4L344.0 165.4L344.0 156.7L387.2 156.7L387.2 165.4ZM430.4 165.4L387.2 165.4L387.2 156.7L430.4 156.7L430.4 165.4ZM471.3 183.0L432.7 183.0L432.7 126.8L471.3 126.8L471.3 183.0ZM439.9 134.0L439.9 175.8L464.1 175.8L464.1 134.0L439.9 134.0ZM514.5 183.0L475.9 183.0L475.9 126.8L514.5 126.8L514.5 183.0ZM483.1 134.0L483.1 175.8L507.3 175.8L507.3 134.0L483.1 134.0ZM557.7 183.0L519.1 183.0L519.1 126.8L557.7 126.8L557.7 183.0ZM526.3 134.0L526.3 175.8L550.5 175.8L550.5 134.0L526.3 134.0ZM600.9 183.0L562.3 183.0L562.3 126.8L600.9 126.8L600.9 183.0ZM569.5 134.0L569.5 175.8L593.7 175.8L593.7 134.0L569.5 134.0ZM644.1 183.0L605.5 183.0L605.5 126.8L644.1 126.8L644.1 183.0ZM612.7 134.0L612.7 175.8L636.9 175.8L636.9 134.0L612.7 134.0ZM687.3 183.0L648.7 183.0L648.7 126.8L687.3 126.8L687.3 183.0ZM655.9 134.0L655.9 175.8L680.1 175.8L680.1 134.0L655.9 134.0ZM730.5 183.0L691.9 183.0L691.9 126.8L730.5 126.8L730.5 183.0ZM699.1 134.0L699.1 175.8L723.3 175.8L723.3 134.0L699.1 134.0ZM773.7 183.0L735.1 183.0L735.1 126.8L773.7 126.8L773.7 183.0ZM742.3 134.0L742.3 175.8L766.5 175.8L766.5 134.0L742.3 134.0Z " clip-path="url(#satori_cp-id-1-0-0)" mask="url(#satori_om-id-1-0-0)"/><mask id="satori_om-id-1-0-1"><rect x="128" y="489" width="944" height="36" fill="#fff"/></mask><mask id="satori_om-id-1-0-1-0"><rect x="128" y="489" width="219" height="36" fill="#fff"/></mask><path fill="black" d="M130.7 520.3L130.7 499.6L132.9 499.6L132.9 508.2L133.0 508.2Q134.4 505.5 137.5 505.5L137.5 505.5Q140.1 505.5 141.6 507.5Q143.1 509.5 143.1 513.0L143.1 513.0Q143.1 516.6 141.6 518.6Q140.1 520.6 137.5 520.6L137.5 520.6Q134.4 520.6 133.0 517.9L133.0 517.9L132.9 517.9L132.9 520.3L130.7 520.3ZM136.6 518.6L136.6 518.6Q138.6 518.6 139.6 517.4Q140.7 516.2 140.7 514.3L140.7 514.3L140.7 511.8Q140.7 509.9 139.6 508.7Q138.6 507.5 136.6 507.5L136.6 507.5Q135.8 507.5 135.2 507.7Q134.5 507.9 134.0 508.2Q133.5 508.6 133.2 509.2Q132.9 509.7 132.9 510.4L132.9 510.4L132.9 515.7Q132.9 516.4 133.2 516.9Q133.5 517.5 134.0 517.8Q134.5 518.2 135.2 518.4Q135.8 518.6 136.6 518.6ZM155.4 511.9L157.9 505.8L160.1 505.8L152.9 523.4Q152.7 524.1 152.4 524.5Q152.1 525.0 151.7 525.3Q151.2 525.6 150.7 525.7Q150.1 525.9 149.3 525.9L149.3 525.9L147.1 525.9L147.1 524.0L150.5 524.0L152.1 520.0L146.3 505.8L148.6 505.8L151.0 511.9L153.2 517.4L153.3 517.4L155.4 511.9Z "/><mask id="satori_om-id-1-0-1-0-1"><rect x="162" y="489" width="17" height="36" fill="#fff"/></mask><clipPath id="satori_cp-id-1-0-1-0-2"><rect x="178" y="489" width="168" height="36"/></clipPath><mask id="satori_om-id-1-0-1-0-2"><rect x="178" y="489" width="168" height="36" fill="#fff"/></mask><path fill="black" d="M190.1 520.1L190.1 511.4L190.3 505.9L190.0 505.9L186.4 516.0L182.8 505.9L182.5 505.9L182.7 511.4L182.7 520.1L179.1 520.1L179.1 500.5L184.0 500.5L186.5 507.1L186.7 507.1L189.1 500.5L193.7 500.5L193.7 520.1L190.1 520.1ZM210.8 520.1L208.4 520.1Q207.1 520.1 206.4 519.4Q205.6 518.8 205.4 517.5L205.4 517.5L205.3 517.5Q204.9 519.0 203.7 519.7Q202.6 520.4 200.9 520.4L200.9 520.4Q198.8 520.4 197.5 519.3Q196.3 518.2 196.3 516.1L196.3 516.1Q196.3 513.8 197.9 512.8Q199.6 511.7 202.8 511.7L202.8 511.7L205.1 511.7L205.1 510.9Q205.1 509.6 204.5 509.0Q203.9 508.3 202.4 508.3L202.4 508.3Q201.1 508.3 200.3 508.8Q199.5 509.3 198.9 510.2L198.9 510.2L196.6 508.1Q197.4 506.9 198.9 506.1Q200.5 505.3 202.9 505.3L202.9 505.3Q205.9 505.3 207.6 506.7Q209.2 508.0 209.2 510.8L209.2 510.8L209.2 517.1L210.8 517.1L210.8 520.1ZM202.5 517.7L202.5 517.7Q203.6 517.7 204.3 517.2Q205.1 516.6 205.1 515.6L205.1 515.6L205.1 513.9L202.9 513.9Q200.3 513.9 200.3 515.6L200.3 515.6L200.3 516.2Q200.3 516.9 200.9 517.3Q201.5 517.7 202.5 517.7ZM213.7 520.1L213.7 516.9L217.0 516.9L217.0 508.9L213.7 508.9L213.7 505.6L221.1 505.6L221.1 509.7L221.3 509.7Q221.5 508.9 221.9 508.2Q222.2 507.5 222.8 506.9Q223.3 506.3 224.1 506.0Q224.9 505.6 226.0 505.6L226.0 505.6L227.3 505.6L227.3 509.5L224.3 509.5Q222.7 509.5 221.9 510.4Q221.1 511.3 221.1 512.6L221.1 512.6L221.1 516.9L225.9 516.9L225.9 520.1L213.7 520.1ZM243.3 520.1L237.9 520.1Q235.7 520.1 234.6 518.9Q233.5 517.7 233.5 515.9L233.5 515.9L233.5 508.9L229.6 508.9L229.6 505.6L232.1 505.6Q233.0 505.6 233.4 505.3Q233.8 504.9 233.8 503.9L233.8 503.9L233.8 500.5L237.6 500.5L237.6 505.6L243.3 505.6L243.3 508.9L237.6 508.9L237.6 516.9L243.3 516.9L243.3 520.1ZM254.5 503.8L254.5 503.8Q253.1 503.8 252.6 503.2Q252.0 502.6 252.0 501.8L252.0 501.8L252.0 501.0Q252.0 500.2 252.6 499.6Q253.1 499.1 254.5 499.1L254.5 499.1Q255.9 499.1 256.4 499.6Q257.0 500.2 257.0 501.0L257.0 501.0L257.0 501.8Q257.0 502.6 256.4 503.2Q255.9 503.8 254.5 503.8ZM247.8 520.1L247.8 516.9L252.4 516.9L252.4 508.9L247.8 508.9L247.8 505.6L256.6 505.6L256.6 516.9L260.8 516.9L260.8 520.1L247.8 520.1ZM268.0 520.1L263.8 520.1L263.8 505.6L268.0 505.6L268.0 508.3L268.1 508.3Q268.4 507.7 268.7 507.1Q269.1 506.6 269.6 506.2Q270.1 505.8 270.8 505.5Q271.5 505.3 272.4 505.3L272.4 505.3Q273.4 505.3 274.3 505.7Q275.2 506.0 275.8 506.7Q276.4 507.4 276.7 508.4Q277.1 509.4 277.1 510.7L277.1 510.7L277.1 520.1L272.9 520.1L272.9 511.3Q272.9 508.5 270.5 508.5L270.5 508.5Q270.0 508.5 269.6 508.6Q269.1 508.8 268.7 509.0Q268.4 509.3 268.2 509.7Q268.0 510.1 268.0 510.6L268.0 510.6L268.0 520.1Z M310.8 520.1L298.2 520.1L298.2 500.5L302.4 500.5L302.4 516.6L310.8 516.6L310.8 520.1ZM321.7 503.8L321.7 503.8Q320.3 503.8 319.8 503.2Q319.2 502.6 319.2 501.8L319.2 501.8L319.2 501.0Q319.2 500.2 319.8 499.6Q320.3 499.1 321.7 499.1L321.7 499.1Q323.1 499.1 323.6 499.6Q324.2 500.2 324.2 501.0L324.2 501.0L324.2 501.8Q324.2 502.6 323.6 503.2Q323.1 503.8 321.7 503.8ZM315.0 520.1L315.0 516.9L319.6 516.9L319.6 508.9L315.0 508.9L315.0 505.6L323.8 505.6L323.8 516.9L328.0 516.9L328.0 520.1L315.0 520.1ZM340.0 520.1L340.0 517.5L339.9 517.5Q339.4 518.7 338.4 519.6Q337.3 520.4 335.6 520.4L335.6 520.4Q334.6 520.4 333.7 520.1Q332.8 519.7 332.2 519.0Q331.6 518.3 331.3 517.3Q330.9 516.3 330.9 515.0L330.9 515.0L330.9 505.6L335.1 505.6L335.1 514.4Q335.1 517.2 337.5 517.2L337.5 517.2Q338.0 517.2 338.4 517.1Q338.9 517.0 339.2 516.7Q339.6 516.5 339.8 516.1Q340.0 515.7 340.0 515.1L340.0 515.1L340.0 505.6L344.2 505.6L344.2 520.1L340.0 520.1Z " clip-path="url(#satori_cp-id-1-0-1-0-2)" mask="url(#satori_om-id-1-0-1-0-2)"/><clipPath id="satori_cp-id-1-0-1-1"><rect x="903" y="489" width="168" height="36"/></clipPath><mask id="satori_om-id-1-0-1-1"><rect x="903" y="489" width="168" height="36" fill="#fff"/></mask><path fill="black" d="M915.1 520.1L915.1 511.4L915.3 505.9L915.0 505.9L911.4 516.0L907.8 505.9L907.5 505.9L907.7 511.4L907.7 520.1L904.1 520.1L904.1 500.5L909.0 500.5L911.5 507.1L911.7 507.1L914.1 500.5L918.7 500.5L918.7 520.1L915.1 520.1ZM935.8 520.1L933.4 520.1Q932.1 520.1 931.4 519.4Q930.6 518.8 930.4 517.5L930.4 517.5L930.3 517.5Q929.9 519.0 928.7 519.7Q927.6 520.4 925.9 520.4L925.9 520.4Q923.8 520.4 922.5 519.3Q921.3 518.2 921.3 516.1L921.3 516.1Q921.3 513.8 922.9 512.8Q924.6 511.7 927.8 511.7L927.8 511.7L930.1 511.7L930.1 510.9Q930.1 509.6 929.5 509.0Q928.9 508.3 927.4 508.3L927.4 508.3Q926.1 508.3 925.3 508.8Q924.5 509.3 923.9 510.2L923.9 510.2L921.6 508.1Q922.4 506.9 923.9 506.1Q925.5 505.3 927.9 505.3L927.9 505.3Q930.9 505.3 932.6 506.7Q934.2 508.0 934.2 510.8L934.2 510.8L934.2 517.1L935.8 517.1L935.8 520.1ZM927.5 517.7L927.5 517.7Q928.6 517.7 929.3 517.2Q930.1 516.6 930.1 515.6L930.1 515.6L930.1 513.9L927.9 513.9Q925.3 513.9 925.3 515.6L925.3 515.6L925.3 516.2Q925.3 516.9 925.9 517.3Q926.5 517.7 927.5 517.7ZM938.7 520.1L938.7 516.9L942.0 516.9L942.0 508.9L938.7 508.9L938.7 505.6L946.1 505.6L946.1 509.7L946.3 509.7Q946.5 508.9 946.9 508.2Q947.2 507.5 947.8 506.9Q948.3 506.3 949.1 506.0Q949.9 505.6 951.0 505.6L951.0 505.6L952.3 505.6L952.3 509.5L949.3 509.5Q947.7 509.5 946.9 510.4Q946.1 511.3 946.1 512.6L946.1 512.6L946.1 516.9L950.9 516.9L950.9 520.1L938.7 520.1ZM968.3 520.1L962.9 520.1Q960.7 520.1 959.6 518.9Q958.5 517.7 958.5 515.9L958.5 515.9L958.5 508.9L954.6 508.9L954.6 505.6L957.1 505.6Q958.0 505.6 958.4 505.3Q958.8 504.9 958.8 503.9L958.8 503.9L958.8 500.5L962.6 500.5L962.6 505.6L968.3 505.6L968.3 508.9L962.6 508.9L962.6 516.9L968.3 516.9L968.3 520.1ZM979.5 503.8L979.5 503.8Q978.1 503.8 977.5 503.2Q977.0 502.6 977.0 501.8L977.0 501.8L977.0 501.0Q977.0 500.2 977.5 499.6Q978.1 499.1 979.5 499.1L979.5 499.1Q980.9 499.1 981.4 499.6Q982.0 500.2 982.0 501.0L982.0 501.0L982.0 501.8Q982.0 502.6 981.4 503.2Q980.9 503.8 979.5 503.8ZM972.8 520.1L972.8 516.9L977.4 516.9L977.4 508.9L972.8 508.9L972.8 505.6L981.6 505.6L981.6 516.9L985.8 516.9L985.8 520.1L972.8 520.1ZM993.0 520.1L988.8 520.1L988.8 505.6L993.0 505.6L993.0 508.3L993.1 508.3Q993.4 507.7 993.7 507.1Q994.1 506.6 994.6 506.2Q995.1 505.8 995.8 505.5Q996.5 505.3 997.4 505.3L997.4 505.3Q998.4 505.3 999.3 505.7Q1000.2 506.0 1000.8 506.7Q1001.4 507.4 1001.7 508.4Q1002.1 509.4 1002.1 510.7L1002.1 510.7L1002.1 520.1L997.9 520.1L997.9 511.3Q997.9 508.5 995.5 508.5L995.5 508.5Q995.0 508.5 994.6 508.6Q994.1 508.8 993.7 509.0Q993.4 509.3 993.2 509.7Q993.0 510.1 993.0 510.6L993.0 510.6L993.0 520.1Z M1035.8 520.1L1023.2 520.1L1023.2 500.5L1027.4 500.5L1027.4 516.6L1035.8 516.6L1035.8 520.1ZM1046.7 503.8L1046.7 503.8Q1045.3 503.8 1044.8 503.2Q1044.2 502.6 1044.2 501.8L1044.2 501.8L1044.2 501.0Q1044.2 500.2 1044.8 499.6Q1045.3 499.1 1046.7 499.1L1046.7 499.1Q1048.1 499.1 1048.6 499.6Q1049.2 500.2 1049.2 501.0L1049.2 501.0L1049.2 501.8Q1049.2 502.6 1048.6 503.2Q1048.1 503.8 1046.7 503.8ZM1040.0 520.1L1040.0 516.9L1044.6 516.9L1044.6 508.9L1040.0 508.9L1040.0 505.6L1048.8 505.6L1048.8 516.9L1053.0 516.9L1053.0 520.1L1040.0 520.1ZM1065.0 520.1L1065.0 517.5L1064.9 517.5Q1064.4 518.7 1063.4 519.6Q1062.3 520.4 1060.6 520.4L1060.6 520.4Q1059.6 520.4 1058.7 520.1Q1057.8 519.7 1057.2 519.0Q1056.6 518.3 1056.3 517.3Q1055.9 516.3 1055.9 515.0L1055.9 515.0L1055.9 505.6L1060.1 505.6L1060.1 514.4Q1060.1 517.2 1062.5 517.2L1062.5 517.2Q1063.0 517.2 1063.4 517.1Q1063.9 517.0 1064.2 516.7Q1064.6 516.5 1064.8 516.1Q1065.0 515.7 1065.0 515.1L1065.0 515.1L1065.0 505.6L1069.2 505.6L1069.2 520.1L1065.0 520.1Z " clip-path="url(#satori_cp-id-1-0-1-1)" mask="url(#satori_om-id-1-0-1-1)"/></svg>